<svg width="25" height="24" viewBox="0 0 25 24" fill="none" xmlns="http://www.w3.org/2000/svg">
<g clip-path="url(#clip0_29589_5459)">
<path d="M13.2031 11.3911V8.18208C13.6382 8.3977 13.9806 8.80767 14.1174 9.32152L15.4763 8.95978C15.1719 7.81603 14.2833 6.95817 13.2031 6.69455V5.4375H11.7969V6.69633C11.2699 6.82645 10.7739 7.09889 10.3759 7.48678C9.78073 8.06681 9.45303 8.8373 9.45313 9.65634C9.45331 11.0929 10.455 12.3005 11.7969 12.6197V15.8404C11.3396 15.6316 10.9774 15.2107 10.8357 14.6785L9.4768 15.0402C9.78561 16.2005 10.6955 17.0669 11.7969 17.3168V18.5625H13.2031V17.2915C13.7126 17.157 14.1911 16.8895 14.5773 16.5132C15.1724 15.9332 15.5001 15.1627 15.5 14.3437C15.4998 12.9238 14.5214 11.727 13.2031 11.3911ZM11.7969 11.1374C11.2432 10.8732 10.8595 10.3084 10.8594 9.65616C10.8593 9.01688 11.2478 8.44884 11.7969 8.18006V11.1374ZM13.2031 15.7956V12.8863C13.7314 13.1595 14.0937 13.7102 14.0938 14.3439C14.0938 14.9647 13.7272 15.518 13.2031 15.7956Z" fill="#A6A6AA"/>
<path d="M12.5 0C5.87258 0 0.5 5.37258 0.5 12C0.5 18.6274 5.87258 24 12.5 24C19.1274 24 24.5 18.6274 24.5 12C24.5 5.37258 19.1274 0 12.5 0ZM12.5 22.5938C6.64925 22.5938 1.90625 17.8507 1.90625 12C1.90625 6.14925 6.64925 1.40625 12.5 1.40625C18.3507 1.40625 23.0938 6.14925 23.0938 12C23.0938 17.8507 18.3507 22.5938 12.5 22.5938Z" fill="#A6A6AA"/>
</g>
<defs>
<clipPath id="clip0_29589_5459">
<rect width="24" height="24" fill="white" transform="translate(0.5)"/>
</clipPath>
</defs>
</svg>
