<svg width="68" height="67" viewBox="0 0 68 67" fill="none" xmlns="http://www.w3.org/2000/svg">
<path d="M64.2997 14.5568H45.2518L58.2316 7.21951C59.2167 6.66257 59.805 5.70691 59.805 4.6633V3.02246C59.805 1.35583 58.2916 0 56.4313 0H53.7787C52.5009 0 51.2596 0.330027 50.189 0.954488L42.4854 5.44663C42.1602 4.06318 40.7875 3.02128 39.1479 3.02128H28.8522C26.9715 3.02128 25.4413 4.39216 25.4413 6.07711V13.7583L10.9375 5.55943C10.5921 5.36419 10.386 5.02919 10.386 4.6633V3.02246C10.386 2.43817 10.9165 1.96289 11.5687 1.96289H14.2213C15.0736 1.96289 15.9015 2.18313 16.6159 2.59952L21.2402 5.29614C21.7472 5.59175 22.4258 5.46338 22.7559 5.00904C23.086 4.55469 22.9424 3.94672 22.4355 3.65111L17.8112 0.954488C16.7404 0.330027 15.499 0 14.2213 0H11.5687C9.70837 0 8.19499 1.35583 8.19499 3.02246V4.6633C8.19499 5.70691 8.7832 6.66244 9.76841 7.21951L22.7482 14.5568H3.70028C1.93567 14.5568 0.5 15.843 0.5 17.4239V25.7165C0.5 27.2982 1.93567 28.5849 3.70028 28.5849H5.03094V64.1316C5.03094 65.7133 6.46661 67 8.23122 67H59.7702C61.5349 67 62.9705 65.7133 62.9705 64.1316V54.3471C62.9705 54.3424 62.9705 54.3377 62.9705 54.3331V32.3694C62.9705 31.8274 62.48 31.3879 61.875 31.3879C61.27 31.3879 60.7796 31.8274 60.7796 32.3694V37.8882L44.1243 52.8108L43.6223 50.1881C43.589 50.0142 43.6533 49.837 43.7944 49.7137L49.0911 45.0881C50.6789 43.793 49.8387 41.1024 47.5453 40.8259L43.3073 40.2742L56.3547 28.5851H64.2997C66.0643 28.5851 67.5 27.2983 67.5 25.7166V17.4241C67.5 15.843 66.0643 14.5568 64.2997 14.5568ZM40.3684 26.622H27.6316V16.5197H40.3684V26.622ZM40.3684 39.8916C40.1749 39.8617 40.0294 39.8734 39.7748 39.5797L36.5012 33.6371C35.6172 31.884 32.5011 31.7686 31.4988 33.6371L28.2252 39.5797C28.1307 39.6855 28.0647 39.8293 27.6316 39.8916V28.5849H40.3684V39.8916ZM51.3842 2.59952C52.0983 2.183 52.9264 1.96289 53.7787 1.96289H56.4313C57.0835 1.96289 57.614 2.43817 57.614 3.02246V4.6633C57.614 5.02919 57.4078 5.36406 57.0625 5.55943L42.5588 13.7582V7.74583L51.3842 2.59952ZM27.6323 6.07698C27.6323 5.47437 28.1796 4.98404 28.8522 4.98404H39.1479C39.8205 4.98404 40.3679 5.47437 40.3679 6.07698V14.5564H27.6324L27.6323 6.07698ZM2.69097 25.7165V17.4239C2.69097 16.9254 3.14378 16.5197 3.70028 16.5197H25.4406V26.622H3.70028C3.14378 26.622 2.69097 26.2157 2.69097 25.7165ZM17.4408 28.5849L7.22191 37.7398V28.5849H17.4408ZM7.22191 64.1316V56.5595L16.3548 48.3774C16.7826 47.9941 16.7826 47.3727 16.3548 46.9895C15.9269 46.6062 15.2333 46.6062 14.8056 46.9895L7.22191 53.7836V40.5158L20.5392 28.5849H25.4406V40.1767L20.4547 40.8258C18.3205 41.0374 17.2351 43.6565 18.9089 45.088L24.2058 49.7137C24.3467 49.8367 24.411 50.0141 24.3777 50.188L23.3913 55.3407L12.5683 65.0371H8.23122C7.67471 65.0371 7.22191 64.6309 7.22191 64.1316ZM25.4406 65.0371H15.6668L23.3323 58.1696C23.6405 58.7752 24.4256 59.4792 25.4404 59.6118L25.4406 65.0371ZM27.6316 65.0371V59.1385L33.7216 56.2701C33.8959 56.1879 34.104 56.1879 34.2784 56.2701L40.3684 59.1385V65.0371H27.6316ZM60.7796 40.6643V53.9338L56.4143 57.8447C55.9864 58.228 55.9864 58.8494 56.4143 59.2326C56.6281 59.4243 56.9085 59.5201 57.1888 59.5201C57.4691 59.5201 57.7496 59.4243 57.9634 59.2326L60.7796 56.7096V64.1316C60.7796 64.6308 60.3267 65.0371 59.7702 65.0371H51.4844L54.1662 62.6345C54.594 62.2512 54.594 61.6298 54.1662 61.2466C53.7383 60.8633 53.0447 60.8633 52.617 61.2466L48.3861 65.0371H42.5594V59.6127C43.8893 59.4687 45.1773 58.1052 44.8726 56.7196L44.578 55.1804L60.7796 40.6643ZM47.7132 43.1331C47.7478 43.2283 47.8021 43.4727 47.5617 43.6826L42.2651 48.308C41.6075 48.8823 41.3075 49.7092 41.4628 50.52L42.7132 57.0514C42.7034 57.4672 42.5265 57.7562 41.8453 57.6165L35.2981 54.5328C34.4854 54.15 33.5149 54.15 32.7022 54.5328L26.155 57.6165C25.7108 57.7366 25.3492 57.6754 25.2869 57.0515L26.5374 50.5201C26.6927 49.7092 26.3928 48.8823 25.7352 48.3082L20.4385 43.6826C20.1736 43.341 20.1269 43.0141 20.77 42.7684L28.0901 41.8155C28.9987 41.6972 29.7838 41.1862 30.19 40.4485L33.4637 34.5059C33.7444 34.1747 34.077 34.0339 34.5366 34.5059L37.8103 40.4485C38.2166 41.1862 39.0017 41.6972 39.9102 41.8155L47.2303 42.7684C47.5624 42.8116 47.6785 43.0378 47.7132 43.1331ZM42.5594 38.1681V28.5849H53.2562L42.5594 38.1681ZM65.309 25.7165C65.309 26.2157 64.8562 26.622 64.2997 26.622H42.5594V16.5197H64.2997C64.8562 16.5197 65.309 16.9254 65.309 17.4239V25.7165Z" fill="black"/>
</svg>
