<svg width="55" height="54" viewBox="0 0 55 54" fill="none" xmlns="http://www.w3.org/2000/svg">
<g clip-path="url(#clip0_26392_15071)">
<path d="M8.9375 43.4531V10.5469C8.9375 5.88695 12.7151 2.10938 17.375 2.10938H11.0469C6.38695 2.10938 2.60938 5.88695 2.60938 10.5469V43.4531C2.60938 48.1131 6.38695 51.8906 11.0469 51.8906H17.375C12.7151 51.8906 8.9375 48.1131 8.9375 43.4531Z" fill="#CEE1F2"/>
<path d="M19.4844 54H11.0469C5.23133 54 0.5 49.2687 0.5 43.4531V10.5469C0.5 4.73133 5.23133 0 11.0469 0H19.4844C23.2377 0 26.7379 2.02004 28.6189 5.27186C29.2023 6.28024 28.8577 7.57065 27.8493 8.154C26.8409 8.73735 25.5506 8.39278 24.9672 7.38429C23.8377 5.43175 21.7368 4.21875 19.4844 4.21875H11.0469C7.55755 4.21875 4.71875 7.05755 4.71875 10.5469V43.4531C4.71875 46.9425 7.55755 49.7812 11.0469 49.7812H19.4844C22.9737 49.7812 25.8125 46.9425 25.8125 43.4531C25.8125 42.2881 26.7569 41.3438 27.9219 41.3438C29.0869 41.3438 30.0312 42.2881 30.0312 43.4531C30.0312 49.2687 25.2999 54 19.4844 54Z" fill="black"/>
<path d="M17.375 45.5625H13.1562C11.9912 45.5625 11.0469 44.6181 11.0469 43.4531C11.0469 42.2881 11.9912 41.3438 13.1562 41.3438H17.375C18.54 41.3438 19.4844 42.2881 19.4844 43.4531C19.4844 44.6181 18.54 45.5625 17.375 45.5625Z" fill="#CC3D00"/>
<path d="M48.1719 37.5469H23.7031C20.2138 37.5469 17.375 34.7081 17.375 31.2188V18.5625C17.375 15.0732 20.2138 12.2344 23.7031 12.2344H48.1719C51.6612 12.2344 54.5 15.0732 54.5 18.5625V31.2188C54.5 34.7081 51.6612 37.5469 48.1719 37.5469ZM23.7031 16.4531C22.54 16.4531 21.5938 17.3994 21.5938 18.5625V31.2188C21.5938 32.3819 22.54 33.3281 23.7031 33.3281H48.1719C49.335 33.3281 50.2812 32.3819 50.2812 31.2188V18.5625C50.2812 17.3994 49.335 16.4531 48.1719 16.4531H23.7031Z" fill="black"/>
<path d="M43.9531 24.8906H27.9219C26.7569 24.8906 25.8125 23.9463 25.8125 22.7812C25.8125 21.6162 26.7569 20.6719 27.9219 20.6719H43.9531C45.1181 20.6719 46.0625 21.6162 46.0625 22.7812C46.0625 23.9463 45.1181 24.8906 43.9531 24.8906Z" fill="#CC3D00"/>
</g>
<defs>
<clipPath id="clip0_26392_15071">
<rect width="54" height="54" fill="white" transform="translate(0.5)"/>
</clipPath>
</defs>
</svg>
