<svg width="59" height="58" viewBox="0 0 59 58" fill="none" xmlns="http://www.w3.org/2000/svg">
<g clip-path="url(#clip0_26392_15086)">
<path d="M9.5625 46.6719V28.5469C9.5625 23.5418 13.6199 19.4844 18.625 19.4844H11.8281C6.82302 19.4844 2.76562 23.5418 2.76562 28.5469V46.6719C2.76562 51.677 6.82302 55.7344 11.8281 55.7344H18.625C13.6199 55.7344 9.5625 51.677 9.5625 46.6719Z" fill="#CEE1F2"/>
<path d="M56.2344 30.0362C54.9831 30.0362 53.9688 31.0505 53.9688 32.3018V46.6719C53.9688 50.4197 50.9197 53.4688 47.1719 53.4688H11.8281C8.08033 53.4688 5.03125 50.4197 5.03125 46.6719V28.5469C5.03125 24.7991 8.08033 21.75 11.8281 21.75H19.9844C21.2357 21.75 22.25 20.7357 22.25 19.4844C22.25 18.2331 21.2357 17.2188 19.9844 17.2188H11.8281C5.5818 17.2188 0.5 22.3005 0.5 28.5469V46.6719C0.5 52.9182 5.5818 58 11.8281 58H47.1719C53.4182 58 58.5 52.9182 58.5 46.6719V32.3018C58.5 31.0505 57.4857 30.0362 56.2344 30.0362Z" fill="black"/>
<path d="M33.5781 26.2812H40.375V28.5469C40.375 29.7982 41.3893 30.8125 42.6406 30.8125C43.8919 30.8125 44.9062 29.7982 44.9062 28.5469V26.2812H51.7031C55.4509 26.2812 58.5 23.2322 58.5 19.4844C58.5 16.5306 56.6061 14.0109 53.9688 13.0757V11.3281C53.9688 5.08474 48.884 0 42.6406 0C36.3943 0 31.3125 5.0818 31.3125 11.3281V13.0757C28.6752 14.0107 26.7812 16.5306 26.7812 19.4844C26.7812 23.2322 29.8303 26.2812 33.5781 26.2812ZM33.5781 17.2188C34.8294 17.2188 35.8438 16.2044 35.8438 14.9531V11.3281C35.8438 7.58033 38.8928 4.53125 42.6406 4.53125C46.363 4.53125 49.4375 7.6057 49.4375 11.3281V14.9531C49.4375 16.2044 50.4518 17.2188 51.7031 17.2188C52.9524 17.2188 53.9688 18.2351 53.9688 19.4844C53.9688 20.7336 52.9524 21.75 51.7031 21.75H33.5781C32.3289 21.75 31.3125 20.7336 31.3125 19.4844C31.3125 18.2351 32.3289 17.2188 33.5781 17.2188Z" fill="black"/>
<path d="M29.5001 44.4062C27.9269 44.4062 26.3926 43.8559 25.1799 42.8567L9.9344 30.2954C8.96868 29.4997 8.83082 28.0718 9.6265 27.1061C10.4223 26.1404 11.8502 26.0026 12.8157 26.7982L28.0612 39.3595C28.3467 39.5947 28.8279 39.8749 29.5001 39.8749C30.1723 39.8749 30.6535 39.5947 30.9389 39.3596L36.8533 34.4865C37.819 33.6909 39.2469 33.8287 40.0425 34.7944C40.8382 35.7601 40.7003 37.1879 39.7346 37.9836L33.8202 42.8566C32.6076 43.8559 31.0734 44.4062 29.5001 44.4062Z" fill="#CC3D00"/>
</g>
<defs>
<clipPath id="clip0_26392_15086">
<rect width="58" height="58" fill="white" transform="translate(0.5)"/>
</clipPath>
</defs>
</svg>
