<svg width="52" height="55" viewBox="0 0 52 55" fill="none" xmlns="http://www.w3.org/2000/svg">
<path d="M8.8125 44.2578V10.7422C8.8125 5.99597 12.66 2.14844 17.4062 2.14844H10.9609C6.21472 2.14844 2.36719 5.99597 2.36719 10.7422V44.2578C2.36719 49.004 6.21472 52.8516 10.9609 52.8516H17.4062C12.66 52.8516 8.8125 49.004 8.8125 44.2578Z" fill="#574240" fill-opacity="0.09"/>
<path d="M32.4453 55H10.9609C5.03759 55 0.21875 50.1811 0.21875 44.2578V10.7422C0.21875 4.81895 5.03759 0 10.9609 0H24.7503C25.9368 0 26.8987 0.961856 26.8987 2.14844C26.8987 3.33502 25.9368 4.29688 24.7503 4.29688H10.9609C7.40699 4.29688 4.51562 7.18824 4.51562 10.7422V44.2578C4.51562 47.8118 7.40699 50.7031 10.9609 50.7031H32.4453C35.9993 50.7031 38.8906 47.8118 38.8906 44.2578V32.2266C38.8906 31.04 39.8525 30.0781 41.0391 30.0781C42.2256 30.0781 43.1875 31.04 43.1875 32.2266V44.2578C43.1875 50.1811 38.3687 55 32.4453 55Z" fill="black"/>
<path d="M19.5547 17.1875H10.9609C9.77436 17.1875 8.8125 16.2256 8.8125 15.0391C8.8125 13.8525 9.77436 12.8906 10.9609 12.8906H19.5547C20.7413 12.8906 21.7031 13.8525 21.7031 15.0391C21.7031 16.2256 20.7413 17.1875 19.5547 17.1875Z" fill="black"/>
<path d="M19.5547 25.7812H10.9609C9.77436 25.7812 8.8125 24.8194 8.8125 23.6328C8.8125 22.4462 9.77436 21.4844 10.9609 21.4844H19.5547C20.7413 21.4844 21.7031 22.4462 21.7031 23.6328C21.7031 24.8194 20.7413 25.7812 19.5547 25.7812Z" fill="black"/>
<path d="M23.8516 46.4063C23.3018 46.4063 22.7519 46.1965 22.3323 45.777L18.0355 41.4801C17.1965 40.6411 17.1965 39.2808 18.0355 38.4418C18.8745 37.6027 20.2349 37.6027 21.0739 38.4418L23.8516 41.2195L30.9261 34.1449C31.7652 33.3059 33.1256 33.3059 33.9645 34.1449C34.8035 34.984 34.8035 36.3443 33.9645 37.1832L25.3708 45.777C24.9513 46.1965 24.4014 46.4063 23.8516 46.4063Z" fill="#CC3D00"/>
<path d="M41.0391 25.7812C40.7122 25.7812 40.3852 25.7067 40.0845 25.5575C37.1359 24.0952 34.6621 21.8355 32.9306 19.0227C31.2077 16.2236 30.2969 13.0036 30.2969 9.71094V6.44531C30.2969 5.91454 30.4934 5.40257 30.8485 5.00812C31.0325 4.80358 35.4204 0 41.0391 0C46.6578 0 51.0456 4.80358 51.2296 5.00812C51.5848 5.40257 51.7812 5.91454 51.7812 6.44531V9.71094C51.7812 13.0035 50.8704 16.2235 49.1474 19.0227C47.4159 21.8355 44.9422 24.0952 41.9935 25.5575C41.6929 25.7067 41.3659 25.7812 41.0391 25.7812ZM34.5938 7.34336V9.71094C34.5938 14.4018 37.0915 18.7923 41.0391 21.1834C44.9866 18.7922 47.4844 14.4018 47.4844 9.71094V7.34175C46.3932 6.33714 43.8328 4.29688 41.0391 4.29688C38.2557 4.29688 35.685 6.34208 34.5938 7.34336Z" fill="black"/>
</svg>
