<svg width="162" height="162" viewBox="0 0 162 162" fill="none" xmlns="http://www.w3.org/2000/svg">
<circle cx="81" cy="81" r="81" fill="white"/>
<path d="M80.24 77.872C80.24 83.504 79.152 88.528 76.976 92.944C74.864 97.296 71.92 100.72 68.144 103.216C64.432 105.712 60.208 106.96 55.472 106.96C50.736 106.96 46.48 105.712 42.704 103.216C38.992 100.72 36.048 97.296 33.872 92.944C31.76 88.528 30.704 83.504 30.704 77.872C30.704 72.24 31.76 67.248 33.872 62.896C36.048 58.48 38.992 55.024 42.704 52.528C46.48 49.968 50.736 48.688 55.472 48.688C60.208 48.688 64.432 49.968 68.144 52.528C71.92 55.024 74.864 58.48 76.976 62.896C79.152 67.248 80.24 72.24 80.24 77.872ZM67.28 77.872C67.28 74.416 66.768 71.408 65.744 68.848C64.784 66.224 63.408 64.176 61.616 62.704C59.824 61.232 57.776 60.496 55.472 60.496C53.104 60.496 51.024 61.232 49.232 62.704C47.44 64.176 46.032 66.224 45.008 68.848C44.048 71.408 43.568 74.416 43.568 77.872C43.568 81.328 44.048 84.336 45.008 86.896C46.032 89.456 47.44 91.472 49.232 92.944C51.024 94.416 53.104 95.152 55.472 95.152C57.776 95.152 59.792 94.416 61.52 92.944C63.312 91.472 64.72 89.456 65.744 86.896C66.768 84.272 67.28 81.264 67.28 77.872ZM130.089 94.384V106H91.1128V94.384H104.745V65.296C104.169 66.064 103.273 66.864 102.057 67.696C100.841 68.464 99.4648 69.2 97.9288 69.904C96.3928 70.608 94.8568 71.184 93.3208 71.632C91.7848 72.08 90.4088 72.304 89.1928 72.304V60.304C90.3448 60.304 91.7208 59.952 93.3208 59.248C94.9848 58.48 96.6168 57.584 98.2168 56.56C99.8808 55.536 101.289 54.544 102.441 53.584C103.657 52.56 104.425 51.76 104.745 51.184H117.897V94.384H130.089Z" fill="#A6A6AA"/>
</svg>
