<svg width="240" height="249" viewBox="0 0 240 249" fill="none" xmlns="http://www.w3.org/2000/svg">
<g clip-path="url(#clip0_26392_15112)">
<path d="M90.7734 117.094C92.8846 120.078 92.1919 124.228 89.2333 126.321C86.2747 128.415 82.1307 127.687 80.0195 124.704C77.9083 121.72 78.601 117.57 81.5596 115.477C84.5182 113.383 88.6622 114.111 90.7734 117.094Z" fill="#F8F6F5" stroke="#F8F6F5" stroke-miterlimit="10"/>
<path d="M130.187 89.2049C132.299 92.1885 131.606 96.3385 128.647 98.432C125.689 100.526 121.545 99.798 119.433 96.8144C117.322 93.8308 118.015 89.6808 120.974 87.5873C123.932 85.4937 128.076 86.2213 130.187 89.2049Z" stroke="#F8F6F5" stroke-width="0.78" stroke-miterlimit="10"/>
<path d="M169.601 61.316C171.712 64.2996 171.019 68.4496 168.061 70.5431C165.102 72.6366 160.958 71.9091 158.847 68.9255C156.736 65.9419 157.428 61.7919 160.387 59.6984C163.346 57.6049 167.49 58.3324 169.601 61.316Z" stroke="#F8F6F5" stroke-width="0.78" stroke-miterlimit="10"/>
<path d="M74.1071 188.535C77.0767 186.434 77.7662 182.303 75.6472 179.308C73.5281 176.313 69.403 175.589 66.4334 177.69C63.4637 179.792 62.7742 183.923 64.8933 186.917C67.0123 189.912 71.1375 190.636 74.1071 188.535Z" stroke="#F8F6F5" stroke-width="0.78" stroke-miterlimit="10"/>
<path d="M115.061 151.418C117.172 154.402 116.48 158.552 113.521 160.646C110.562 162.739 106.418 162.012 104.307 159.028C102.196 156.044 102.889 151.894 105.847 149.801C108.806 147.707 112.95 148.435 115.061 151.418Z" stroke="#F8F6F5" stroke-width="0.78" stroke-miterlimit="10"/>
<path d="M154.475 123.53C156.586 126.513 155.893 130.663 152.934 132.757C149.976 134.85 145.832 134.123 143.721 131.139C141.609 128.155 142.302 124.005 145.261 121.912C148.219 119.818 152.363 120.546 154.475 123.53Z" stroke="#F8F6F5" stroke-width="0.78" stroke-miterlimit="10"/>
<path d="M177.055 155.441C183.124 164.018 181.133 175.948 172.628 181.966C164.123 187.984 152.21 185.893 146.142 177.316C140.073 168.739 142.064 156.809 150.569 150.791C159.074 144.773 170.986 146.864 177.055 155.441Z" stroke="#CA0C34" stroke-width="10" stroke-miterlimit="10"/>
</g>
<defs>
<clipPath id="clip0_26392_15112">
<rect width="175.596" height="178.461" fill="white" transform="translate(0.288696 102.374) rotate(-35.2832)"/>
</clipPath>
</defs>
</svg>
