<svg width="20" height="20" viewBox="0 0 20 20" fill="none" xmlns="http://www.w3.org/2000/svg">
<path d="M9.10329 2.30662C9.47013 1.56345 10.5299 1.56345 10.8967 2.30662L12.8576 6.27908C13.0031 6.57393 13.2843 6.77839 13.6096 6.82594L17.9962 7.46711C18.8161 7.58695 19.1429 8.59479 18.5493 9.17295L15.3768 12.263C15.1409 12.4927 15.0333 12.8239 15.0889 13.1484L15.8374 17.5126C15.9775 18.3296 15.12 18.9525 14.3864 18.5667L10.4655 16.5048C10.1741 16.3515 9.82593 16.3515 9.53455 16.5048L5.61363 18.5667C4.88 18.9525 4.02245 18.3296 4.16257 17.5126L4.91109 13.1484C4.96675 12.8239 4.85908 12.4927 4.62321 12.263L1.45068 9.17295C0.857085 8.59479 1.18387 7.58695 2.00378 7.46711L6.39037 6.82594C6.71572 6.77839 6.99691 6.57393 7.14245 6.27908L9.10329 2.30662Z" fill="#FFB800"/>
</svg>
