<svg width="199" height="131" viewBox="0 0 199 131" fill="none" xmlns="http://www.w3.org/2000/svg">
<path d="M93.7 54.9709C93.7 62.8909 92.5 70.2109 90.1 76.9309C87.82 83.5309 84.58 89.2909 80.38 94.2109C76.3 99.0109 71.38 102.791 65.62 105.551C59.98 108.191 53.86 109.511 47.26 109.511C40.54 109.511 34.36 108.191 28.72 105.551C23.08 102.791 18.16 99.0109 13.96 94.2109C9.88 89.2909 6.64 83.5309 4.24 76.9309C1.96 70.2109 0.82 62.8909 0.82 54.9709C0.82 47.0509 1.96 39.7909 4.24 33.1909C6.64 26.4709 9.88 20.7109 13.96 15.9109C18.16 10.9909 23.08 7.15094 28.72 4.39094C34.36 1.63094 40.54 0.250937 47.26 0.250937C53.86 0.250937 59.98 1.63094 65.62 4.39094C71.38 7.15094 76.3 10.9909 80.38 15.9109C84.58 20.7109 87.82 26.4709 90.1 33.1909C92.5 39.7909 93.7 47.0509 93.7 54.9709ZM69.4 54.9709C69.4 50.1709 68.86 45.7909 67.78 41.8309C66.7 37.7509 65.14 34.2709 63.1 31.3909C61.18 28.5109 58.84 26.2909 56.08 24.7309C53.44 23.1709 50.5 22.3909 47.26 22.3909C43.9 22.3909 40.84 23.1709 38.08 24.7309C35.44 26.2909 33.1 28.5109 31.06 31.3909C29.14 34.2709 27.64 37.7509 26.56 41.8309C25.48 45.7909 24.94 50.1709 24.94 54.9709C24.94 59.7709 25.48 64.1509 26.56 68.1109C27.64 72.0709 29.14 75.4909 31.06 78.3709C33.1 81.2509 35.44 83.4709 38.08 85.0309C40.84 86.5909 43.9 87.3709 47.26 87.3709C50.5 87.3709 53.44 86.5909 56.08 85.0309C58.84 83.4709 61.18 81.2509 63.1 78.3709C65.14 75.4909 66.7 72.0709 67.78 68.1109C68.86 64.1509 69.4 59.7709 69.4 54.9709ZM158.726 130.571V103.751H106.166V82.3309L166.466 4.93093H182.846V82.1509H198.686V103.751H182.846V130.571H158.726ZM130.286 82.1509H161.426V41.4709L130.286 82.1509Z" fill="#A6A6AA" fill-opacity="0.3"/>
</svg>
