<svg width="197" height="135" viewBox="0 0 197 135" fill="none" xmlns="http://www.w3.org/2000/svg">
<path d="M93.7 54.9495C93.7 62.8695 92.5 70.1895 90.1 76.9095C87.82 83.5095 84.58 89.2695 80.38 94.1895C76.3 98.9895 71.38 102.769 65.62 105.529C59.98 108.169 53.86 109.489 47.26 109.489C40.54 109.489 34.36 108.169 28.72 105.529C23.08 102.769 18.16 98.9895 13.96 94.1895C9.88 89.2695 6.64 83.5095 4.24 76.9095C1.96 70.1895 0.82 62.8695 0.82 54.9495C0.82 47.0294 1.96 39.7694 4.24 33.1694C6.64 26.4494 9.88 20.6894 13.96 15.8894C18.16 10.9695 23.08 7.12945 28.72 4.36945C34.36 1.60945 40.54 0.229453 47.26 0.229453C53.86 0.229453 59.98 1.60945 65.62 4.36945C71.38 7.12945 76.3 10.9695 80.38 15.8894C84.58 20.6894 87.82 26.4494 90.1 33.1694C92.5 39.7694 93.7 47.0294 93.7 54.9495ZM69.4 54.9495C69.4 50.1495 68.86 45.7695 67.78 41.8094C66.7 37.7295 65.14 34.2495 63.1 31.3694C61.18 28.4894 58.84 26.2694 56.08 24.7094C53.44 23.1494 50.5 22.3694 47.26 22.3694C43.9 22.3694 40.84 23.1494 38.08 24.7094C35.44 26.2694 33.1 28.4894 31.06 31.3694C29.14 34.2495 27.64 37.7295 26.56 41.8094C25.48 45.7695 24.94 50.1495 24.94 54.9495C24.94 59.7494 25.48 64.1294 26.56 68.0895C27.64 72.0495 29.14 75.4695 31.06 78.3495C33.1 81.2295 35.44 83.4495 38.08 85.0095C40.84 86.5695 43.9 87.3495 47.26 87.3495C50.5 87.3495 53.44 86.5695 56.08 85.0095C58.84 83.4495 61.18 81.2295 63.1 78.3495C65.14 75.4695 66.7 72.0495 67.78 68.0895C68.86 64.1294 69.4 59.7494 69.4 54.9495ZM171.146 65.2095C178.586 66.5295 184.586 70.1295 189.146 76.0095C193.826 81.7695 196.166 88.8495 196.166 97.2495C196.166 102.889 195.026 107.989 192.746 112.549C190.586 117.109 187.466 120.949 183.386 124.069C179.426 127.309 174.566 129.769 168.806 131.449C163.046 133.249 156.566 134.149 149.366 134.149C140.246 134.149 132.146 132.649 125.066 129.649C118.106 126.769 112.286 122.509 107.606 116.869L121.286 99.7695C124.406 103.729 128.126 106.789 132.446 108.949C136.766 111.109 142.166 112.189 148.646 112.189C155.966 112.189 161.546 110.749 165.386 107.869C169.226 104.989 171.146 100.549 171.146 94.5495C171.146 88.3095 168.926 83.5095 164.486 80.1495C160.046 76.7895 153.326 75.1095 144.326 75.1095H139.286V57.1094H144.866C152.306 57.1094 158.066 55.4894 162.146 52.2494C166.226 48.8894 168.266 44.6294 168.266 39.4695C168.266 34.5495 166.586 30.8894 163.226 28.4894C159.866 26.0895 155.486 24.8895 150.086 24.8895C144.566 24.8895 139.586 26.1495 135.146 28.6695C130.826 31.1895 127.286 34.7295 124.526 39.2894L109.406 22.3694C111.206 19.6094 113.606 17.1494 116.606 14.9894C119.606 12.7094 122.966 10.7894 126.686 9.22944C130.526 7.54944 134.666 6.28945 139.106 5.44945C143.546 4.48945 148.106 4.00945 152.786 4.00945C158.906 4.00945 164.486 4.78945 169.526 6.34945C174.566 7.90945 178.886 10.0695 182.486 12.8295C186.206 15.5895 189.026 18.9495 190.946 22.9095C192.986 26.7495 194.006 31.0695 194.006 35.8694C194.006 39.4694 193.466 42.8895 192.386 46.1295C191.306 49.3694 189.746 52.3094 187.706 54.9495C185.666 57.5894 183.206 59.8094 180.326 61.6095C177.566 63.4095 174.506 64.6095 171.146 65.2095Z" fill="#A6A6AA" fill-opacity="0.3"/>
</svg>
