<svg width="20" height="22" viewBox="0 0 20 22" fill="none" xmlns="http://www.w3.org/2000/svg">
<path fill-rule="evenodd" clip-rule="evenodd" d="M3.2 0.4C3.38885 0.148194 3.68524 0 4 0H16C16.3148 0 16.6111 0.148194 16.8 0.4L19.7939 4.39188C19.9232 4.56038 20 4.77122 20 5V19C20 19.7957 19.6839 20.5587 19.1213 21.1213C18.5587 21.6839 17.7957 22 17 22H3C2.20435 22 1.44129 21.6839 0.87868 21.1213C0.31607 20.5587 0 19.7957 0 19V5C0 4.77123 0.0768168 4.56041 0.206063 4.39192L3.2 0.4ZM2 6V19C2 19.2652 2.10536 19.5196 2.29289 19.7071C2.48043 19.8946 2.73478 20 3 20H17C17.2652 20 17.5196 19.8946 17.7071 19.7071C17.8946 19.5196 18 19.2652 18 19V6H2ZM17 4H3L4.5 2H15.5L17 4ZM6 8C6.55228 8 7 8.44771 7 9C7 9.79565 7.31607 10.5587 7.87868 11.1213C8.44129 11.6839 9.20435 12 10 12C10.7956 12 11.5587 11.6839 12.1213 11.1213C12.6839 10.5587 13 9.79565 13 9C13 8.44771 13.4477 8 14 8C14.5523 8 15 8.44771 15 9C15 10.3261 14.4732 11.5979 13.5355 12.5355C12.5979 13.4732 11.3261 14 10 14C8.67392 14 7.40215 13.4732 6.46447 12.5355C5.52678 11.5979 5 10.3261 5 9C5 8.44771 5.44772 8 6 8Z" fill="#3A3A3A"/>
</svg>
