<svg width="163" height="162" viewBox="0 0 163 162" fill="none" xmlns="http://www.w3.org/2000/svg">
<circle cx="81.8013" cy="81" r="81" fill="white"/>
<path d="M81.8425 78.372C81.8425 84.004 80.7545 89.028 78.5785 93.444C76.4665 97.796 73.5225 101.22 69.7465 103.716C66.0345 106.212 61.8105 107.46 57.0745 107.46C52.3385 107.46 48.0825 106.212 44.3065 103.716C40.5945 101.22 37.6505 97.796 35.4745 93.444C33.3625 89.028 32.3065 84.004 32.3065 78.372C32.3065 72.74 33.3625 67.748 35.4745 63.396C37.6505 58.98 40.5945 55.524 44.3065 53.028C48.0825 50.468 52.3385 49.188 57.0745 49.188C61.8105 49.188 66.0345 50.468 69.7465 53.028C73.5225 55.524 76.4665 58.98 78.5785 63.396C80.7545 67.748 81.8425 72.74 81.8425 78.372ZM68.8825 78.372C68.8825 74.916 68.3705 71.908 67.3465 69.348C66.3865 66.724 65.0105 64.676 63.2185 63.204C61.4265 61.732 59.3785 60.996 57.0745 60.996C54.7065 60.996 52.6265 61.732 50.8345 63.204C49.0425 64.676 47.6345 66.724 46.6105 69.348C45.6505 71.908 45.1705 74.916 45.1705 78.372C45.1705 81.828 45.6505 84.836 46.6105 87.396C47.6345 89.956 49.0425 91.972 50.8345 93.444C52.6265 94.916 54.7065 95.652 57.0745 95.652C59.3785 95.652 61.3945 94.916 63.1225 93.444C64.9145 91.972 66.3225 89.956 67.3465 87.396C68.3705 84.772 68.8825 81.764 68.8825 78.372ZM116.523 118.692V104.388H88.4913V92.964L120.651 51.684H129.387V92.868H137.835V104.388H129.387V118.692H116.523ZM101.355 92.868H117.963V71.172L101.355 92.868Z" fill="#A6A6AA"/>
</svg>
