<svg width="45" height="44" viewBox="0 0 45 44" fill="none" xmlns="http://www.w3.org/2000/svg">
<circle cx="22.5" cy="22" r="22" fill="#F4CED6"/>
<path d="M14.5 14.875H30.5C31.0304 14.875 31.5391 15.0769 31.9142 15.4364C32.2893 15.7958 32.5 16.2833 32.5 16.7917V22.5417C32.5 25.0833 31.4464 27.5209 29.5711 29.3181C27.6957 31.1153 25.1522 32.125 22.5 32.125C21.1868 32.125 19.8864 31.8771 18.6732 31.3955C17.4599 30.9139 16.3575 30.208 15.4289 29.3181C13.5536 27.5209 12.5 25.0833 12.5 22.5417V16.7917C12.5 16.2833 12.7107 15.7958 13.0858 15.4364C13.4609 15.0769 13.9696 14.875 14.5 14.875Z" stroke="#170E0E" stroke-width="2" stroke-linecap="round" stroke-linejoin="round"/>
<path d="M18.5 21.5833L22.5 25.4166L26.5 21.5833" stroke="#170E0E" stroke-width="2" stroke-linecap="round" stroke-linejoin="round"/>
</svg>
