<svg width="24" height="25" viewBox="0 0 24 25" fill="none" xmlns="http://www.w3.org/2000/svg">
<path d="M5 17.1323H4C3.46957 17.1323 2.96086 16.9216 2.58579 16.5465C2.21071 16.1715 2 15.6628 2 15.1323V5.13232C2 4.60189 2.21071 4.09318 2.58579 3.71811C2.96086 3.34304 3.46957 3.13232 4 3.13232H20C20.5304 3.13232 21.0391 3.34304 21.4142 3.71811C21.7893 4.09318 22 4.60189 22 5.13232V15.1323C22 15.6628 21.7893 16.1715 21.4142 16.5465C21.0391 16.9216 20.5304 17.1323 20 17.1323H19" stroke="white" stroke-width="2" stroke-linecap="round" stroke-linejoin="round"/>
<path d="M12 15.1323L17 21.1323H7L12 15.1323Z" stroke="white" stroke-width="2" stroke-linecap="round" stroke-linejoin="round"/>
</svg>
