<svg width="162" height="162" viewBox="0 0 162 162" fill="none" xmlns="http://www.w3.org/2000/svg">
<circle cx="81" cy="81" r="81" fill="white"/>
<path d="M80.24 77.872C80.24 83.504 79.152 88.528 76.976 92.944C74.864 97.296 71.92 100.72 68.144 103.216C64.432 105.712 60.208 106.96 55.472 106.96C50.736 106.96 46.48 105.712 42.704 103.216C38.992 100.72 36.048 97.296 33.872 92.944C31.76 88.528 30.704 83.504 30.704 77.872C30.704 72.24 31.76 67.248 33.872 62.896C36.048 58.48 38.992 55.024 42.704 52.528C46.48 49.968 50.736 48.688 55.472 48.688C60.208 48.688 64.432 49.968 68.144 52.528C71.92 55.024 74.864 58.48 76.976 62.896C79.152 67.248 80.24 72.24 80.24 77.872ZM67.28 77.872C67.28 74.416 66.768 71.408 65.744 68.848C64.784 66.224 63.408 64.176 61.616 62.704C59.824 61.232 57.776 60.496 55.472 60.496C53.104 60.496 51.024 61.232 49.232 62.704C47.44 64.176 46.032 66.224 45.008 68.848C44.048 71.408 43.568 74.416 43.568 77.872C43.568 81.328 44.048 84.336 45.008 86.896C46.032 89.456 47.44 91.472 49.232 92.944C51.024 94.416 53.104 95.152 55.472 95.152C57.776 95.152 59.792 94.416 61.52 92.944C63.312 91.472 64.72 89.456 65.744 86.896C66.768 84.272 67.28 81.264 67.28 77.872ZM121.545 83.344C124.233 83.792 126.569 84.816 128.553 86.416C130.537 87.952 132.073 89.936 133.161 92.368C134.313 94.8 134.889 97.488 134.889 100.432C134.889 104.4 133.865 107.856 131.817 110.8C129.769 113.744 126.857 116.016 123.081 117.616C119.369 119.28 114.985 120.112 109.929 120.112C105.065 120.112 100.745 119.312 96.9688 117.712C93.2568 116.176 90.1528 113.904 87.6568 110.896L94.9528 101.776C96.6168 103.824 98.6008 105.424 100.905 106.576C103.273 107.792 106.153 108.4 109.545 108.4C113.449 108.4 116.425 107.6 118.473 106C120.521 104.464 121.545 102.128 121.545 98.992C121.545 95.664 120.361 93.104 117.993 91.312C115.625 89.52 112.041 88.624 107.241 88.624H104.553V79.024H107.529C111.433 79.024 114.473 78.128 116.649 76.336C118.889 74.544 120.009 72.304 120.009 69.616C120.009 67.888 119.593 66.448 118.761 65.296C117.929 64.144 116.777 63.28 115.305 62.704C113.897 62.128 112.233 61.84 110.313 61.84C107.433 61.84 104.809 62.512 102.441 63.856C100.073 65.2 98.1528 67.088 96.6808 69.52L88.6168 60.496C89.9608 58.512 91.7848 56.816 94.0888 55.408C96.4568 53.936 99.1448 52.784 102.153 51.952C105.225 51.12 108.425 50.704 111.753 50.704C116.105 50.704 119.913 51.408 123.177 52.816C126.505 54.224 129.097 56.208 130.953 58.768C132.809 61.328 133.737 64.304 133.737 67.696C133.737 70.192 133.225 72.56 132.201 74.8C131.177 77.04 129.737 78.928 127.881 80.464C126.089 81.936 123.977 82.896 121.545 83.344Z" fill="#A6A6AA"/>
</svg>
