<svg width="45" height="44" viewBox="0 0 45 44" fill="none" xmlns="http://www.w3.org/2000/svg">
<circle cx="22.5" cy="22" r="22" fill="#F4CED6"/>
<path d="M13.5 28V22C13.5 19.6131 14.4482 17.3239 16.136 15.636C17.8239 13.9482 20.1131 13 22.5 13C24.8869 13 27.1761 13.9482 28.864 15.636C30.5518 17.3239 31.5 19.6131 31.5 22V28" stroke="#170E0E" stroke-width="2" stroke-linecap="round" stroke-linejoin="round"/>
<path d="M31.5 29C31.5 29.5304 31.2893 30.0391 30.9142 30.4142C30.5391 30.7893 30.0304 31 29.5 31H28.5C27.9696 31 27.4609 30.7893 27.0858 30.4142C26.7107 30.0391 26.5 29.5304 26.5 29V26C26.5 25.4696 26.7107 24.9609 27.0858 24.5858C27.4609 24.2107 27.9696 24 28.5 24H31.5V29ZM13.5 29C13.5 29.5304 13.7107 30.0391 14.0858 30.4142C14.4609 30.7893 14.9696 31 15.5 31H16.5C17.0304 31 17.5391 30.7893 17.9142 30.4142C18.2893 30.0391 18.5 29.5304 18.5 29V26C18.5 25.4696 18.2893 24.9609 17.9142 24.5858C17.5391 24.2107 17.0304 24 16.5 24H13.5V29Z" stroke="#170E0E" stroke-width="2" stroke-linecap="round" stroke-linejoin="round"/>
</svg>
