<svg width="24" height="24" viewBox="0 0 24 24" fill="none" xmlns="http://www.w3.org/2000/svg">
<g id="009-login 1" clip-path="url(#clip0_30080_9854)">
<g id="Group">
<path id="Vector" d="M17.8037 8.43802L17.1064 7.74066C17.3703 7.0785 17.5042 6.37856 17.5042 5.65392C17.5042 4.03692 16.8096 2.49408 15.5985 1.42092L15.1323 1.94705C16.1929 2.88689 16.8012 4.23797 16.8012 5.65392C16.8012 6.18417 16.7195 6.69919 16.558 7.19227L16.3125 6.94673L14.666 8.59322C14.7052 7.44459 14.0416 6.41391 13.0617 5.94952C13.6039 5.56748 13.9592 4.93702 13.9592 4.2248C13.9592 3.06192 13.0131 2.11584 11.8503 2.11584C10.6874 2.11584 9.7413 3.06192 9.7413 4.2248C9.7413 4.93706 10.0966 5.56748 10.6388 5.94952C9.69091 6.40322 9.03452 7.37175 9.03452 8.49089V9.72384C7.74527 8.82914 6.89927 7.33861 6.89927 5.65397C6.89927 2.92402 9.12026 0.702984 11.8503 0.702984C12.8222 0.702984 13.7629 0.984375 14.5707 1.51669L14.9575 0.929672C14.0346 0.321469 12.9601 0 11.8503 0C8.73265 0 6.19629 2.53636 6.19629 5.65397C6.19629 8.77158 8.73265 11.3079 11.8503 11.3079C12.3751 11.3079 12.9565 11.1998 13.4618 11.0553L14.3241 11.9176L17.8037 8.43802ZM16.3125 7.94095L16.8095 8.43806L14.3241 10.9235L12.8344 9.43369L13.3315 8.93658L14.3242 9.92925L16.3125 7.94095ZM10.4443 4.2248C10.4443 3.44953 11.075 2.81883 11.8503 2.81883C12.6255 2.81883 13.2563 3.44953 13.2563 4.2248C13.2563 5.00006 12.6256 5.63077 11.8503 5.63077C11.075 5.63077 10.4443 5.00006 10.4443 4.2248ZM11.8503 10.6049C11.0949 10.6049 10.3787 10.4346 9.73751 10.1308V8.49094C9.73751 7.32595 10.6853 6.37819 11.8503 6.37819C13.0464 6.37556 14.0074 7.38089 13.963 8.57405L13.3315 7.9425L11.8402 9.43373L12.8998 10.4933C12.5566 10.5673 12.205 10.6049 11.8503 10.6049Z" fill="black"/>
<path id="Vector_2" d="M9.74136 14.817H16.7712V15.521H6.92942V14.817H9.03838V14.114H6.22644V16.224H17.4741V14.114H9.74136V14.817Z" fill="black"/>
<path id="Vector_3" d="M6.92944 12.7253H9.74138V13.4283H6.92944V12.7253Z" fill="black"/>
<path id="Vector_4" d="M6.22644 20.4412H17.4741V18.3313H6.22644V20.4412ZM6.92942 19.0343H16.7711V19.7383H6.92942V19.0343Z" fill="black"/>
<path id="Vector_5" d="M13.9905 21.1436H9.71008C8.92253 21.1436 8.2818 21.7843 8.2818 22.5718C8.2818 23.3594 8.92253 24.0001 9.71008 24.0001H10.7958V23.2971H9.71008C9.31014 23.2971 8.98478 22.9718 8.98478 22.5718C8.98478 22.1719 9.31014 21.8465 9.71008 21.8465H13.9905C14.3904 21.8465 14.7158 22.1719 14.7158 22.5718C14.7158 22.9718 14.3904 23.2971 13.9905 23.2971H12.9048V24.0001H13.9905C14.778 24.0001 15.4188 23.3593 15.4188 22.5718C15.4188 21.7842 14.778 21.1436 13.9905 21.1436Z" fill="black"/>
<path id="Vector_6" d="M11.4988 23.2971H12.2018V24.0001H11.4988V23.2971Z" fill="black"/>
<path id="Vector_7" d="M6.92944 16.926H9.74138V17.629H6.92944V16.926Z" fill="black"/>
</g>
</g>
<defs>
<clipPath id="clip0_30080_9854">
<rect width="24" height="24" fill="white"/>
</clipPath>
</defs>
</svg>
