<svg width="24" height="24" viewBox="0 0 24 24" fill="none" xmlns="http://www.w3.org/2000/svg">
<g clip-path="url(#clip0_29589_5476)">
<path d="M22.3608 5.70254C21.3082 3.90582 19.7989 2.40545 17.9962 1.36361L17.2925 2.58118C20.5853 4.48407 22.6165 8.02646 22.5935 11.8259C22.5585 17.6355 17.8083 22.3544 11.9998 22.3541C11.9934 22.3541 11.9864 22.3541 11.98 22.3541C6.14958 22.3433 1.40625 17.591 1.40625 11.7603C1.40625 7.27393 4.24734 3.25778 8.47594 1.76664C9.13519 1.53418 9.83949 1.63178 10.4083 2.03429C10.973 2.434 11.2969 3.06029 11.2969 3.75273V5.90096H11.0625C9.12399 5.90096 7.54688 7.47807 7.54688 9.41659V14.1041C7.54688 16.5595 9.54455 18.5572 12 18.5572C14.4555 18.5572 16.4531 16.5595 16.4531 14.1041V9.41659C16.4531 7.47807 14.876 5.90096 12.9375 5.90096H12.7031V3.75273C12.7031 2.59796 12.1628 1.55326 11.2207 0.886465C10.2883 0.226652 9.08747 0.0599646 8.00831 0.440449C3.2183 2.1295 0 6.67862 0 11.7603C0 14.9617 1.24556 17.9725 3.50733 20.2382C5.76872 22.5036 8.77683 23.7544 11.9774 23.7603C11.985 23.7603 11.9922 23.7603 11.9999 23.7603C18.5788 23.76 23.96 18.4149 23.9998 11.8344C24.0128 9.67525 23.4461 7.55495 22.3608 5.70254ZM8.95313 9.41659C8.95313 8.25348 9.89939 7.30721 11.0625 7.30721H11.2969V10.1197H8.95313V9.41659ZM12.7031 7.30721H12.9375C14.1006 7.30721 15.0469 8.25348 15.0469 9.41659V10.1197H12.7031V7.30721ZM15.0469 11.526V14.1041C15.0469 15.7841 13.68 17.151 12 17.151C10.32 17.151 8.95313 15.7841 8.95313 14.1041V11.526H15.0469Z" fill="#A6A6AA"/>
</g>
<defs>
<clipPath id="clip0_29589_5476">
<rect width="24" height="24" fill="white"/>
</clipPath>
</defs>
</svg>
