<svg width="24" height="24" viewBox="0 0 24 24" fill="none" xmlns="http://www.w3.org/2000/svg">
<path id="Vector" d="M21.1025 16.6276H20.6542C21.2205 16.0561 21.571 15.2705 21.571 14.4043V3.16073C21.571 1.41792 20.153 0 18.4102 0H5.58949C3.84663 0 2.42876 1.41792 2.42876 3.16073V14.4043C2.42876 15.2431 2.75374 16.0319 3.34366 16.6276H2.89746C2.63857 16.6276 2.42871 16.8375 2.42871 17.0964V21.3775C2.42871 22.8236 3.60518 24 5.05123 24H9.79146C10.0504 24 10.2602 23.7901 10.2602 23.5312C10.2602 23.2724 10.0504 23.0625 9.79146 23.0625H5.05127C4.12216 23.0625 3.36626 22.3066 3.36626 21.3775V17.5651H20.6337V21.3775C20.6337 22.3066 19.8778 23.0625 18.9487 23.0625H13.9219C13.663 23.0625 13.4531 23.2724 13.4531 23.5312C13.4531 23.7901 13.663 24 13.9219 24H18.9487C20.3948 24 21.5712 22.8235 21.5712 21.3775V17.0964C21.5712 16.8375 21.3613 16.6276 21.1025 16.6276ZM17.9414 15.6102V16.6275H6.05834V15.61C6.05834 15.4298 6.19048 15.2686 6.36734 15.2333C6.6057 15.1858 6.83543 15.1393 7.05827 15.0942C7.89757 14.9242 8.62287 14.7773 9.33935 14.6716C11.1445 14.4515 12.8441 14.5078 14.6465 14.721C15.5285 14.8407 16.5113 15.0099 17.6326 15.2334C17.8097 15.2686 17.9414 15.4298 17.9414 15.6102ZM9.64413 13.6847C9.62904 13.5761 9.62144 13.4662 9.62144 13.3556C9.62144 12.0446 10.6875 10.978 11.9982 10.977H12.0019C13.3126 10.978 14.3787 12.0446 14.3787 13.3556C14.3787 13.4843 14.3685 13.6118 14.3482 13.7373C12.7838 13.5461 11.2108 13.4907 9.64413 13.6847C9.68627 13.6795 9.62899 13.5761 9.64413 13.6847ZM13.2006 10.0359C13.1999 10.0381 13.1979 10.0396 13.1956 10.0396H12.4685V8.9812C12.5555 8.99414 13.4643 9.20906 13.4375 9.29255L13.2006 10.0359ZM11.531 10.0395H10.8041C10.8019 10.0395 10.7998 10.038 10.7991 10.0358L10.5622 9.2925C10.5354 9.20906 11.444 8.99409 11.531 8.98116V10.0395ZM17.588 14.2688C16.747 14.104 15.982 13.9698 15.2768 13.8642C15.3027 13.6967 15.3161 13.5269 15.3161 13.3556C15.3161 12.2386 14.7604 11.2496 13.9116 10.6485C13.9918 10.5547 14.0545 10.444 14.0938 10.3206L14.3307 9.57722C14.4751 9.12417 14.2582 8.63288 13.8262 8.43441C12.6324 7.88536 11.3674 7.88559 10.1735 8.43436C9.74154 8.63287 9.5246 9.12422 9.66898 9.57722L9.90588 10.3206C9.94526 10.4441 10.008 10.5548 10.0883 10.6485C9.23951 11.2497 8.6839 12.2387 8.6839 13.3556C8.6839 13.5122 8.69534 13.6679 8.71713 13.8218C7.96802 13.9481 7.22435 14.1045 6.47974 14.2545V4.66847C6.47974 4.34123 6.74599 4.07498 7.07327 4.07498H16.9945C17.3217 4.07498 17.588 4.34123 17.588 4.66847V14.2688ZM3.36626 3.16073C3.36626 1.93486 4.36362 0.9375 5.58949 0.9375H18.4102C19.6361 0.9375 20.6335 1.93486 20.6335 3.16073V14.4043C20.6335 15.4694 19.8806 16.362 18.8791 16.5778V15.6099C18.8791 15.2789 18.7512 14.9516 18.5255 14.7094V4.66847C18.5255 3.8243 17.8387 3.13748 16.9945 3.13748H7.07327C6.22905 3.13748 5.54224 3.8243 5.54224 4.66847V14.6428C5.27674 14.8905 5.12074 15.2469 5.12074 15.6102V16.5783C4.70585 16.4896 4.32471 16.2834 4.01754 15.9762C3.59759 15.5563 3.36626 14.998 3.36626 14.4043V3.16073Z" fill="#3A3A3A"/>
<path id="Vector_2" d="M11.8566 24C12.1155 24 12.3253 23.7901 12.3253 23.5312C12.3253 23.2724 12.1155 23.0625 11.8566 23.0625C11.5977 23.0625 11.3878 23.2724 11.3878 23.5312C11.3878 23.7901 11.5977 24 11.8566 24Z" fill="#3A3A3A"/>
</svg>
