<svg width="24" height="24" viewBox="0 0 24 24" fill="none" xmlns="http://www.w3.org/2000/svg">
<g id="signup_5660161 1" clip-path="url(#clip0_30080_10641)">
<g id="Group">
<g id="Group_2">
<path id="Vector" d="M21.6562 0.0158691H14.1213C13.8624 0.0158691 13.6525 0.225729 13.6525 0.484619C13.6525 0.74351 13.8624 0.953369 14.1213 0.953369H21.6562C22.4317 0.953369 23.0625 1.58421 23.0625 2.35962V9.67212C23.0625 10.4475 22.4317 11.0784 21.6562 11.0784H7.01513V10.3715C7.01513 9.59614 6.38428 8.96529 5.60887 8.96529C4.83347 8.96529 4.20262 9.59614 4.20262 10.3715V11.0784H2.34375C1.56834 11.0784 0.9375 10.4475 0.9375 9.67212V2.35962C0.9375 1.58421 1.56834 0.953369 2.34375 0.953369H9.90253C10.1614 0.953369 10.3713 0.74351 10.3713 0.484619C10.3713 0.225729 10.1614 0.0158691 9.90253 0.0158691H2.34375C1.05141 0.0158691 0 1.06728 0 2.35962V9.67212C0 10.9645 1.05141 12.0159 2.34375 12.0159H4.20262V15.5369L4.0035 15.2452C3.49767 14.5041 2.48302 14.3125 1.74187 14.8179C1.11403 15.246 0.866625 16.0401 1.14019 16.749L2.48981 20.2465C2.88769 21.2777 3.54783 22.1803 4.40648 22.8708L4.39903 23.5102C4.39758 23.6354 4.44633 23.7561 4.53441 23.8452C4.62244 23.9343 4.74248 23.9844 4.86778 23.9844H10.784C11.0407 23.9844 11.2497 23.7778 11.2527 23.5211L11.2608 22.8244C12.1516 21.7978 12.6402 20.4924 12.6402 19.1282V16.1673C12.6402 15.3919 12.0093 14.761 11.2339 14.761C10.988 14.761 10.7568 14.8246 10.5555 14.936C10.3074 14.5352 9.86391 14.2675 9.35892 14.2675C9.04612 14.2675 8.75695 14.3702 8.52309 14.5436C8.2657 14.2612 7.89516 14.0838 7.48392 14.0838C7.31958 14.0838 7.16189 14.1124 7.01517 14.1644V12.0159H21.6562C22.9486 12.0159 24 10.9645 24 9.67212V2.35962C24 1.06728 22.9486 0.0158691 21.6562 0.0158691ZM7.48388 15.0213C7.74234 15.0213 7.95263 15.2315 7.95263 15.49V16.602C7.95263 16.8609 8.16248 17.0707 8.42138 17.0707C8.68027 17.0707 8.89013 16.8609 8.89013 16.602V15.6737C8.89013 15.4152 9.10041 15.205 9.35888 15.205C9.61734 15.205 9.82763 15.4152 9.82763 15.6737V16.602C9.82763 16.8609 10.0375 17.0707 10.2964 17.0707C10.5553 17.0707 10.7651 16.8609 10.7651 16.602V16.1673C10.7651 15.9088 10.9754 15.6985 11.2339 15.6985C11.4923 15.6985 11.7026 15.9088 11.7026 16.1673V19.1282C11.7026 20.317 11.2578 21.452 10.4501 22.3243C10.3711 22.4096 10.3267 22.5211 10.3253 22.6373L10.3206 23.0469H5.34197L5.34661 22.6482C5.34834 22.498 5.27798 22.356 5.15728 22.2664C4.34752 21.6652 3.72755 20.85 3.36441 19.909L2.01483 16.4115C1.89881 16.1109 2.00377 15.7741 2.27002 15.5925C2.58436 15.3781 3.01462 15.4594 3.22917 15.7737L4.28419 17.3194C4.40011 17.4892 4.61311 17.5636 4.80961 17.503C5.00606 17.4424 5.14008 17.2607 5.14008 17.0551V10.3716C5.14008 10.1131 5.35036 9.90284 5.60883 9.90284C5.8673 9.90284 6.07758 10.1131 6.07758 10.3716V16.602C6.07758 16.8609 6.28744 17.0707 6.54633 17.0707C6.80522 17.0707 7.01508 16.8609 7.01508 16.602V15.49C7.01512 15.2315 7.22541 15.0213 7.48388 15.0213Z" fill="black"/>
<path id="Vector_2" d="M8.80027 4.60738C9.05241 4.60738 9.27844 4.77594 9.34997 5.01725C9.42347 5.26545 9.68433 5.40706 9.93253 5.33356C10.1807 5.26006 10.3223 4.9992 10.2488 4.751C10.0603 4.11448 9.46463 3.66992 8.80031 3.66992C7.96734 3.66992 7.28967 4.34759 7.28967 5.18056V6.84678C7.28967 7.67975 7.96734 8.35742 8.80031 8.35742C9.46308 8.35742 10.0583 7.91422 10.2479 7.27962C10.2608 7.23608 10.2675 7.19089 10.2675 7.14547V6.22934C10.2675 5.97045 10.0576 5.76059 9.7987 5.76059H9.36478C9.10589 5.76059 8.89603 5.97045 8.89603 6.22934C8.89603 6.47652 9.08733 6.67902 9.32995 6.69683V7.06639C9.24225 7.27719 9.03216 7.41997 8.80027 7.41997C8.48424 7.41997 8.22713 7.16286 8.22713 6.84683V5.18061C8.22713 4.86448 8.48424 4.60738 8.80027 4.60738Z" fill="black"/>
<path id="Vector_3" d="M16.155 3.66992C15.8961 3.66992 15.6862 3.87978 15.6862 4.13867V6.9553C15.6862 7.4413 15.917 7.83514 16.372 8.12591C16.6118 8.27914 16.8821 8.357 17.1754 8.35742H17.1778C17.4295 8.35742 17.6662 8.30253 17.8812 8.1942C18.4112 7.9273 18.7031 7.48653 18.7031 6.95319V4.13867C18.7031 3.87978 18.4933 3.66992 18.2344 3.66992C17.9755 3.66992 17.7656 3.87978 17.7656 4.13867V6.95314C17.7656 7.07656 17.7292 7.22103 17.4595 7.35687C17.3753 7.39925 17.2832 7.41987 17.1779 7.41987C17.1775 7.41987 17.1771 7.41987 17.1767 7.41987C17.0632 7.41973 16.9651 7.39222 16.8769 7.33588C16.6652 7.20064 16.6238 7.09391 16.6238 6.9553V4.13867C16.6237 3.87978 16.4139 3.66992 16.155 3.66992Z" fill="black"/>
<path id="Vector_4" d="M19.2988 7.88867C19.2988 8.14756 19.5086 8.35742 19.7675 8.35742C20.0264 8.35742 20.2363 8.14756 20.2363 7.88867V6.72519C20.3568 6.72448 20.4802 6.72392 20.5773 6.72392C21.4307 6.72392 22.125 6.03894 22.125 5.19692C22.125 4.35491 21.4307 3.66992 20.5773 3.66992H19.7675C19.6429 3.66992 19.5235 3.71952 19.4356 3.80773C19.3476 3.89595 19.2984 4.01558 19.2988 4.14017V7.88867ZM20.5773 4.60742C20.9081 4.60742 21.1875 4.87737 21.1875 5.19692C21.1875 5.51647 20.9081 5.78642 20.5773 5.78642C20.4811 5.78642 20.3599 5.78694 20.2409 5.78764C20.2398 5.57098 20.2382 4.83392 20.2376 4.60742H20.5773Z" fill="black"/>
<path id="Vector_5" d="M3.52665 7.41987C3.1058 7.41987 2.82019 7.23907 2.68735 7.13131C2.48635 6.96818 2.19113 6.99884 2.02801 7.19989C1.86488 7.40093 1.89558 7.69611 2.09658 7.85923C2.4924 8.18047 3.00029 8.35737 3.5266 8.35737C4.31687 8.35737 4.98052 7.85309 5.1046 7.15826C5.19797 6.63542 4.9606 5.95236 4.01447 5.60337C3.55388 5.4335 3.12507 5.24848 2.99344 5.19083C2.89135 5.10879 2.89482 4.99447 2.90166 4.94679C2.91118 4.88061 2.95927 4.71884 3.19993 4.64637C3.72783 4.48723 4.21716 4.87315 4.23188 4.88492C4.43002 5.04931 4.72402 5.02311 4.88996 4.82572C5.05655 4.62753 5.03091 4.33184 4.83277 4.16529C4.79738 4.13553 3.95415 3.44018 2.92955 3.74867C2.41187 3.90462 2.04563 4.31267 1.97368 4.81358C1.90622 5.28354 2.10994 5.73565 2.50533 5.99347C2.52605 6.00697 3.10847 6.26843 3.69005 6.48293C3.85449 6.54354 4.23151 6.71473 4.18172 6.99345C4.14432 7.20307 3.88904 7.41987 3.52665 7.41987Z" fill="black"/>
<path id="Vector_6" d="M5.76184 4.13867V7.88867C5.76184 8.14756 5.9717 8.35742 6.23059 8.35742C6.48948 8.35742 6.69934 8.14756 6.69934 7.88867V4.13867C6.69934 3.87978 6.48948 3.66992 6.23059 3.66992C5.9717 3.66992 5.76184 3.87978 5.76184 4.13867Z" fill="black"/>
<path id="Vector_7" d="M11.3145 8.36188C11.5733 8.36188 11.7832 8.15202 11.7832 7.89313V5.67711L13.4045 8.07739C13.5406 8.27844 13.7699 8.36487 13.9887 8.2978C14.2121 8.22927 14.3565 8.02077 14.3565 7.76661V4.13867C14.3565 3.87978 14.1466 3.66992 13.8878 3.66992C13.6289 3.66992 13.419 3.87978 13.419 4.13867V6.42397L11.7029 3.8833C11.5875 3.71253 11.3742 3.63716 11.1772 3.69744C10.9802 3.75777 10.8457 3.93964 10.8457 4.14566V7.89313C10.8457 8.15202 11.0556 8.36188 11.3145 8.36188Z" fill="black"/>
<path id="Vector_8" d="M12 0.953369C12.2589 0.953369 12.4688 0.743503 12.4688 0.484619C12.4688 0.225736 12.2589 0.0158691 12 0.0158691C11.7411 0.0158691 11.5312 0.225736 11.5312 0.484619C11.5312 0.743503 11.7411 0.953369 12 0.953369Z" fill="black"/>
</g>
</g>
</g>
<defs>
<clipPath id="clip0_30080_10641">
<rect width="24" height="24" fill="white"/>
</clipPath>
</defs>
</svg>
