<svg width="22" height="24" viewBox="0 0 22 24" fill="none" xmlns="http://www.w3.org/2000/svg">
	<path d="M13.2343 7.02998C13.0151 6.89245 12.7258 6.95859 12.5881 7.17787C12.4505 7.39715 12.5167 7.68651 12.736 7.82409C13.6979 8.4277 14.2722 9.46439 14.2722 10.5973V13.4029C14.2722 15.2072 12.8043 16.6751 11 16.6751C9.1957 16.6751 7.72784 15.2072 7.72784 13.4029V10.5973C7.72784 9.46683 8.30028 8.43126 9.2591 7.82719C9.4782 7.68919 9.5438 7.39978 9.4058 7.18073C9.2679 6.96164 8.97842 6.89601 8.75933 7.03397C7.52642 7.81073 6.79034 9.14278 6.79034 10.5973V13.4029C6.79034 15.7241 8.6788 17.6126 11 17.6126C13.3212 17.6126 15.2097 15.7241 15.2097 13.4029V10.5973C15.2097 9.13973 14.4712 7.80614 13.2343 7.02998Z" fill="#3A3A3A"/>
	<path d="M20.312 17.3494C19.5197 16.4983 18.1288 16.4954 17.3329 17.3429L16.7879 17.8878L16.2028 17.3326C16.9509 16.3593 17.4325 15.1712 17.5374 13.8781C17.973 14.2383 18.5313 14.455 19.1394 14.455C20.5276 14.455 21.657 13.3257 21.657 11.9375C21.657 10.5494 20.5276 9.41995 19.1394 9.41995C18.5265 9.41995 17.9642 9.64041 17.5271 10.0058C17.4049 8.77167 16.9391 7.63716 16.2272 6.69914L16.795 6.13678L17.3329 6.67477C18.1286 7.52189 19.5195 7.51955 20.3117 6.66863L21.1541 5.76577C21.3265 5.58112 21.3215 5.29313 21.1429 5.11448L20.3059 4.27753C19.8788 3.82275 19.2497 3.58472 18.6287 3.64327C18.6872 3.02213 18.4492 2.39316 17.9944 1.96598L17.1574 1.12903C16.9787 0.950391 16.6908 0.945469 16.5062 1.11778L15.6038 1.95994C14.7527 2.75227 14.7497 4.14314 15.5972 4.93913L16.132 5.47392L15.6077 5.9933C14.8206 5.21555 13.8383 4.63509 12.7418 4.33275C13.2194 3.87431 13.5176 3.2303 13.5176 2.51756C13.5176 1.12941 12.3882 0 11 0C9.6119 0 8.48247 1.12941 8.48247 2.51756C8.48247 3.2303 8.78069 3.87431 9.2583 4.33275C8.16723 4.63359 7.18937 5.20978 6.40426 5.98167L5.8712 5.46895L6.40108 4.93913C7.24825 4.14347 7.2459 2.7525 6.39498 1.96036L5.49217 1.11778C5.30753 0.945516 5.01953 0.950438 4.84089 1.12903L4.00394 1.96598C3.54911 2.39316 3.31112 3.02217 3.36967 3.64327C2.74848 3.58472 2.11951 3.8227 1.69239 4.27758L0.85534 5.11458C0.67675 5.29322 0.67178 5.58117 0.84409 5.76586L1.6862 6.6683C2.47895 7.51988 3.86894 7.52283 4.66534 6.67486L5.20816 6.13205L5.7835 6.68536C5.06561 7.62605 4.59578 8.76562 4.47301 10.0059C4.03591 9.64045 3.47364 9.42 2.8607 9.42C1.4725 9.42 0.34314 10.5494 0.34314 11.9376C0.34314 13.3257 1.4725 14.4551 2.8607 14.4551C3.46876 14.4551 4.02709 14.2384 4.4627 13.8782C4.56751 15.1704 5.04859 16.3577 5.79583 17.3307L5.21003 17.8875L4.66534 17.3429C3.86969 16.4958 2.47876 16.4981 1.68662 17.349L0.84409 18.2518C0.67178 18.4365 0.67675 18.7245 0.85534 18.9031L1.6923 19.74C2.11947 20.1949 2.74839 20.4329 3.36958 20.3743C3.31103 20.9954 3.54901 21.6244 4.00384 22.0515L4.8408 22.8885C5.01723 23.0649 5.30983 23.0698 5.49208 22.8998L6.39447 22.0576C7.24562 21.2654 7.24844 19.8745 6.40103 19.0785L5.87317 18.5506L6.41851 18.0322C7.20119 18.7971 8.17384 19.3681 9.2583 19.6672C8.78069 20.1256 8.48247 20.7696 8.48247 21.4823C8.48247 22.8706 9.6119 24 11 24C12.3882 24 13.5176 22.8706 13.5176 21.4824C13.5176 20.7697 13.2194 20.1257 12.7418 19.6672C13.8255 19.3684 14.7975 18.798 15.5799 18.0339L16.1248 18.551L15.5972 19.0786C14.7501 19.8743 14.7523 21.2652 15.6033 22.0573L16.5061 22.8999C16.6884 23.0699 16.9809 23.0651 17.1574 22.8886L17.9943 22.0517C18.4492 21.6245 18.6872 20.9955 18.6286 20.3744C19.2495 20.433 19.8788 20.1949 20.3059 19.7401L21.1429 18.9032C21.3215 18.7245 21.3265 18.4366 21.1541 18.2519L20.312 17.3494ZM19.1394 10.3575C20.0106 10.3575 20.7194 11.0663 20.7194 11.9376C20.7194 12.8088 20.0106 13.5176 19.1394 13.5176C18.2681 13.5176 17.5593 12.8088 17.5593 11.9376C17.5593 11.0663 18.2681 10.3575 19.1394 10.3575ZM18.8184 4.57148C19.1397 4.57148 19.4151 4.71005 19.6375 4.935L20.1598 5.45733L19.6258 6.02953C19.1769 6.51169 18.4485 6.46978 18.0013 6.01744L17.4594 5.47552L17.9951 4.93983C18.2301 4.71905 18.4857 4.57148 18.8184 4.57148ZM16.2429 2.64577L16.8146 2.11219L17.337 2.63452C17.8232 3.11789 17.7915 3.78942 17.3343 4.27472L16.7965 4.81256L16.2545 4.27064C15.8047 3.82078 15.7585 3.09666 16.2429 2.64577ZM11 0.9375C11.8712 0.9375 12.5801 1.6463 12.5801 2.51756C12.5801 3.38878 11.8713 4.09758 11 4.09758C10.1288 4.09758 9.42 3.38878 9.42 2.51756C9.42 1.6463 10.1288 0.9375 11 0.9375ZM4.2978 3.45366C4.2978 3.13167 4.43678 2.85773 4.66131 2.63452L5.18359 2.11219L5.75575 2.64614C6.23997 3.09684 6.19333 3.82106 5.74375 4.27064L5.20183 4.81256L4.66394 4.27472C4.44372 4.04105 4.2978 3.78436 4.2978 3.45366ZM3.98528 6.02953C3.55487 6.49181 2.80225 6.49125 2.37203 6.02911L1.83845 5.45733L2.36078 4.935C2.845 4.44516 3.51747 4.48359 4.00314 4.93983L4.53883 5.47552C4.53883 5.47552 3.98148 6.03366 3.98528 6.02953C3.98908 6.02541 3.98908 6.02541 3.98528 6.02953ZM2.8607 13.5176C1.98948 13.5176 1.28064 12.8088 1.28064 11.9376C1.28064 11.0663 1.98948 10.3575 2.8607 10.3575C3.73192 10.3575 4.44076 11.0663 4.44076 11.9376C4.44072 12.8088 3.73192 13.5176 2.8607 13.5176ZM3.17987 19.4462C2.85845 19.4462 2.5832 19.3077 2.36078 19.0827L1.83845 18.5603L2.37241 17.9882C2.82409 17.5029 3.54606 17.5521 3.99686 18.0003L4.53878 18.5422L4.00309 19.0778C3.7682 19.2986 3.5125 19.4462 3.17987 19.4462ZM5.75533 21.3719L5.18359 21.9055L4.66126 21.3832C4.17573 20.9004 4.2062 20.2288 4.66394 19.743L5.20178 19.2051L5.7437 19.7471C6.19492 20.1957 6.23875 20.922 5.75533 21.3719ZM11 23.0625C10.1288 23.0625 9.42 22.3537 9.42 21.4824C9.42 20.6112 10.1288 19.9024 11 19.9024C11.8713 19.9024 12.5801 20.6112 12.5801 21.4824C12.5801 22.3537 11.8712 23.0625 11 23.0625ZM11 18.9649C7.90014 18.9649 5.37822 16.443 5.37822 13.3431V10.6569C5.37822 7.557 7.90014 5.03503 11 5.03503C14.0999 5.03503 16.6218 7.557 16.6218 10.6569V13.3431C16.6218 16.443 14.0999 18.9649 11 18.9649ZM17.7004 20.5641C17.7004 20.8861 17.5614 21.1599 17.337 21.3832L16.8146 21.9055L16.2424 21.3715C15.7592 20.9217 15.8035 20.1954 16.2545 19.7471L16.7965 19.2051L17.3342 19.7429C17.5544 19.9766 17.7005 20.2333 17.7004 20.5641ZM19.6375 19.0827C19.1521 19.5736 18.4826 19.5359 17.995 19.0778L17.4594 18.5422L18.0013 18.0002C18.45 17.5489 19.1762 17.5052 19.6262 17.9886L20.1598 18.5603L19.6375 19.0827Z" fill="#3A3A3A"/>
	<path d="M11 7.3252C11.2589 7.3252 11.4688 7.11533 11.4688 6.85645C11.4688 6.59756 11.2589 6.3877 11 6.3877C10.7411 6.3877 10.5312 6.59756 10.5312 6.85645C10.5312 7.11533 10.7411 7.3252 11 7.3252Z" fill="#3A3A3A"/>
</svg>