<svg width="24" height="24" viewBox="0 0 24 24" fill="none" xmlns="http://www.w3.org/2000/svg">
<path d="M5.08561 4.73438L4.62952 1.92188H0V3.32812H3.43294L5.83139 18.1188C5.17819 18.4777 4.73438 19.1723 4.73438 19.9688C4.73438 21.1319 5.68064 22.0781 6.84375 22.0781C7.76039 22.0781 8.54194 21.4903 8.83219 20.6719H18.4959C18.7862 21.4903 19.5677 22.0781 20.4844 22.0781C21.6475 22.0781 22.5938 21.1319 22.5938 19.9688C22.5938 18.8056 21.6475 17.8594 20.4844 17.8594C19.5677 17.8594 18.7862 18.4472 18.4959 19.2656H8.83219C8.58258 18.5618 7.96941 18.0291 7.21955 17.8935L6.98597 16.4531H20.4844C22.4229 16.4531 24 14.876 24 12.9375V4.73438H5.08561ZM20.4844 19.2656C20.8721 19.2656 21.1875 19.581 21.1875 19.9688C21.1875 20.3565 20.8721 20.6719 20.4844 20.6719C20.0967 20.6719 19.7812 20.3565 19.7812 19.9688C19.7812 19.581 20.0967 19.2656 20.4844 19.2656ZM7.54688 19.9688C7.54688 20.3565 7.23145 20.6719 6.84375 20.6719C6.45605 20.6719 6.14062 20.3565 6.14062 19.9688C6.14062 19.581 6.45605 19.2656 6.84375 19.2656C7.23145 19.2656 7.54688 19.581 7.54688 19.9688ZM22.5938 12.9375C22.5938 14.1006 21.6475 15.0469 20.4844 15.0469H6.75792L5.31366 6.14062H22.5938V12.9375Z" fill="#A6A6AA"/>
</svg>
