<svg width="76" height="70" viewBox="0 0 76 70" fill="none" xmlns="http://www.w3.org/2000/svg">
<g clip-path="url(#clip0_1_2)">
<path d="M57.6848 34.775C58.8492 30.3379 57.2352 25.4774 53.6448 22.621C52.0145 18.4817 48.52 15.3142 44.2225 14.1078C42.9677 13.7557 41.6701 13.5771 40.3658 13.5771H35.1422C32.2216 13.5771 29.3365 14.4894 26.9456 16.1657C24.6692 17.762 22.9335 19.9532 21.9008 22.5245C19.0485 24.7353 17.3562 28.1749 17.3562 31.801C17.3562 32.8111 17.4843 33.8069 17.7381 34.7746C12.584 38.0008 8.25529 42.4471 5.17149 47.6953C1.78835 53.4578 0 60.0525 0 66.7666C0 67.3681 0.0150257 67.9842 0.0443405 68.5976C0.0820521 69.3863 0.733313 70.0001 1.5145 70.0001C1.53837 70.0001 1.56238 69.9995 1.58624 69.9983C2.39896 69.9594 3.02606 69.269 2.98702 68.4564C2.96006 67.8899 2.94621 67.3213 2.94621 66.7666C2.94621 60.5765 4.59433 54.4976 7.71201 49.1875C10.4736 44.4874 14.3214 40.4876 18.895 37.5353C19.2965 38.2256 19.7454 38.8816 20.2695 39.4851C21.6302 41.0524 23.4429 42.1242 25.4305 42.5788C17.5821 46.2206 11.6247 53.3456 9.44159 61.7467C9.23697 62.5341 9.7094 63.3384 10.4969 63.543C11.2843 63.7477 12.0886 63.2752 12.2932 62.4877C14.2984 54.771 19.8423 48.25 27.1233 45.0436C30.4189 43.5923 34.0815 42.8255 37.7176 42.8255H37.7422C47.4358 42.8372 56.5907 48.4067 61.0653 57.0147C62.9054 60.5544 63.923 64.5461 64.0083 68.5582C64.0254 69.3609 64.6814 70.0001 65.4805 70.0001C65.4911 70.0001 65.5017 70 65.5123 69.9998C66.3256 69.9826 66.9711 69.3092 66.9538 68.4958C66.859 64.0345 65.7268 59.5945 63.6795 55.6559C58.7057 46.0876 48.5303 39.8958 37.7543 39.8795C37.7507 39.8795 37.7475 39.8789 37.744 39.8789H27.5969C25.6372 39.8789 23.7773 39.0313 22.4939 37.5532C21.1011 35.9494 20.3024 33.9303 20.3024 31.8008C20.3024 29.5399 21.1359 27.4432 22.6287 25.8384L25.2899 31.1842C25.539 31.6844 26.0497 32.0007 26.6086 32.0007H38.7253C41.4163 32.0635 48.4266 32.6461 55.1702 36.6977C55.1726 36.699 55.1751 36.6999 55.1773 36.7014C55.1807 36.7035 55.1838 36.7058 55.1872 36.7077C65.8514 42.9226 72.4763 54.4404 72.4763 66.7665C72.4763 67.3208 72.4624 67.8891 72.4353 68.4557C72.4184 68.807 72.5279 69.1529 72.744 69.4308C73.2435 70.073 74.1692 70.189 74.8113 69.6894C75.1705 69.4101 75.3648 68.9975 75.3791 68.5758C75.4078 67.9694 75.4224 67.3609 75.4224 66.7666C75.4224 60.0506 73.6339 53.4559 70.2501 47.6955C67.1672 42.4467 62.8385 38.0002 57.6848 34.775ZM55.1193 31.9265C55.1134 32.3615 55.0779 32.7987 55.0052 33.2278C53.3904 32.382 51.78 31.7062 50.2265 31.1663L52.8476 25.9012C54.3288 27.5384 55.1489 29.7196 55.1193 31.9265ZM50.0219 24.9662L47.9866 29.0546H39.1857V24.9662H50.0219ZM50.0755 22.0195H42.7811L44.6648 17.3745C46.9236 18.3032 48.8236 19.9383 50.0755 22.0195ZM40.3658 16.5234C40.8429 16.5234 41.3202 16.555 41.7935 16.615L39.602 22.0195H35.7345L33.6119 16.6275C34.1186 16.5587 34.6308 16.5234 35.1423 16.5234H40.3658ZM28.6371 18.5781C29.3023 18.1117 30.0109 17.7214 30.7532 17.4091L32.5682 22.0197H25.4292C26.2393 20.6668 27.3253 19.4979 28.6371 18.5781ZM25.4855 24.9662H36.2386L36.2392 29.0546H27.5207L25.4855 24.9662Z" fill="black"/>
<path d="M37.7128 9.10977C38.5264 9.10977 39.1859 8.45027 39.1859 7.63668V1.4731C39.1859 0.659505 38.5264 0 37.7128 0C36.8992 0 36.2397 0.659505 36.2397 1.4731V7.63668C36.2397 8.45027 36.8992 9.10977 37.7128 9.10977Z" fill="black"/>
<path d="M26.7996 10.5859C27.2545 11.2475 28.1862 11.4201 28.848 10.9651C29.5185 10.5042 29.6882 9.58701 29.2272 8.9166L25.9848 4.20108C25.5237 3.53067 24.6066 3.36097 23.9363 3.8219C23.2659 4.28283 23.0962 5.19998 23.5571 5.87039L26.7996 10.5859Z" fill="black"/>
<path d="M46.3718 10.965C47.0335 11.4199 47.9654 11.2474 48.4202 10.5859L51.6628 5.87032C52.1238 5.19992 51.9541 4.28277 51.2837 3.82184C50.6132 3.36105 49.6961 3.53061 49.2352 4.20101L45.9927 8.91654C45.5315 9.5868 45.7014 10.5039 46.3718 10.965C46.6268 11.1403 45.7014 10.5039 46.3718 10.965Z" fill="black"/>
<path d="M10.0123 69.9997C10.8259 69.9997 11.4854 69.3401 11.4854 68.5266C11.4854 67.713 10.8259 67.0535 10.0123 67.0535C9.19877 67.0535 8.53925 67.713 8.53925 68.5266C8.53925 69.3401 9.19877 69.9997 10.0123 69.9997Z" fill="black"/>
</g>
<defs>
<clipPath id="clip0_1_2">
<rect width="76" height="70" fill="white"/>
</clipPath>
</defs>
</svg>
