<svg width="24" height="24" viewBox="0 0 24 24" fill="none" xmlns="http://www.w3.org/2000/svg">
<g clip-path="url(#clip0_29589_5469)">
<path d="M21.1406 10.5557V9.14062C21.1406 4.10048 17.0401 0 12 0C6.95986 0 2.85938 4.10048 2.85938 9.14062V10.5557C1.78383 10.6509 0.9375 11.5564 0.9375 12.6562V16.4062C0.9375 17.5331 1.82569 18.4564 2.93878 18.5129C3.44498 20.7335 6.33197 22.4178 10.0072 22.5807C10.2937 23.4059 11.0785 24 12 24C13.1631 24 14.1094 23.0537 14.1094 21.8906C14.1094 20.7275 13.1631 19.7812 12 19.7812C11.0889 19.7812 10.311 20.3619 10.0166 21.1726C7.28625 21.0338 4.99561 19.923 4.41066 18.5156H6.09375V10.5469H4.26562V9.14062C4.26562 4.87589 7.73527 1.40625 12 1.40625C16.2647 1.40625 19.7344 4.87589 19.7344 9.14062V10.5469H17.9062V18.5156H20.9531C22.1162 18.5156 23.0625 17.5694 23.0625 16.4062V12.6562C23.0625 11.5564 22.2162 10.6509 21.1406 10.5557ZM12 21.1875C12.3877 21.1875 12.7031 21.5029 12.7031 21.8906C12.7031 22.2783 12.3877 22.5938 12 22.5938C11.6123 22.5938 11.2969 22.2783 11.2969 21.8906C11.2969 21.5029 11.6123 21.1875 12 21.1875ZM4.6875 11.9531V17.1094H3.04688C2.65917 17.1094 2.34375 16.794 2.34375 16.4062V12.6562C2.34375 12.2685 2.65917 11.9531 3.04688 11.9531H4.6875ZM21.6562 16.4062C21.6562 16.794 21.3408 17.1094 20.9531 17.1094H19.3125V11.9531H20.9531C21.3408 11.9531 21.6562 12.2685 21.6562 12.6562V16.4062Z" fill="#A6A6AA"/>
</g>
<defs>
<clipPath id="clip0_29589_5469">
<rect width="24" height="24" fill="white"/>
</clipPath>
</defs>
</svg>
