<svg width="24" height="24" viewBox="0 0 24 24" fill="none" xmlns="http://www.w3.org/2000/svg">
<g id="027-heart">
<g id="Group">
<g id="Group_2">
<path id="Vector" d="M22.0132 3.19023C20.732 1.90904 19.0285 1.20343 17.2166 1.20343C15.4047 1.20343 13.7012 1.90904 12.42 3.19023L12 3.61027L11.58 3.19027C10.2988 1.90909 8.59528 1.20348 6.78338 1.20348C4.97152 1.20348 3.26803 1.90904 1.98684 3.19027C0.705609 4.47146 0 6.1749 0 7.98685C0 9.79876 0.705609 11.5022 1.98684 12.7834L12 22.7966L22.0132 12.7834C23.2944 11.5021 24 9.79876 24 7.98685C24 6.17495 23.2944 4.47151 22.0132 3.19023ZM21.0188 11.789L12 20.8078L2.9812 11.789C1.96561 10.7734 1.40625 9.42315 1.40625 7.98685C1.40625 6.55056 1.96561 5.20027 2.9812 4.18463C3.9968 3.16904 5.34708 2.60973 6.78338 2.60973C8.21972 2.60973 9.57 3.16904 10.5856 4.18468L12 5.59904L13.4144 4.18463C14.43 3.16904 15.7803 2.60973 17.2166 2.60973C18.6529 2.60973 20.0032 3.16904 21.0188 4.18463C22.0344 5.20023 22.5938 6.55051 22.5938 7.98685C22.5938 9.42315 22.0344 10.7735 21.0188 11.789Z" fill="#A6A6AA"/>
</g>
</g>
</g>
</svg>
