<svg width="24" height="22" viewBox="0 0 472 416" fill="none" xmlns="http://www.w3.org/2000/svg">
<path d="M433.601 39.001C408.901 14.301 376.201 0.801008 341.301 0.801008C306.401 0.801008 273.601 14.401 248.901 39.101L236.001 52.001L222.901 38.901C198.201 14.201 165.301 0.501007 130.401 0.501007C95.601 0.501007 62.801 14.101 38.201 38.701C13.501 63.401 -0.0989947 96.201 0.00100534 131.101C0.00100534 166.001 13.701 198.701 38.401 223.401L226.201 411.201C228.801 413.801 232.301 415.201 235.701 415.201C239.101 415.201 242.601 413.901 245.201 411.301L433.401 223.801C458.101 199.101 471.701 166.301 471.701 131.401C471.801 96.501 458.301 63.701 433.601 39.001ZM414.401 204.701L235.701 382.701L57.401 204.401C37.801 184.801 27.001 158.801 27.001 131.101C27.001 103.401 37.701 77.401 57.301 57.901C76.801 38.401 102.801 27.601 130.401 27.601C158.101 27.601 184.201 38.401 203.801 58.001L226.401 80.601C231.701 85.901 240.201 85.901 245.501 80.601L267.901 58.201C287.501 38.601 313.601 27.801 341.201 27.801C368.801 27.801 394.801 38.601 414.401 58.101C434.001 77.701 444.701 103.701 444.701 131.401C444.801 159.101 434.001 185.101 414.401 204.701Z" fill="black"/>
</svg>
