<svg width="163" height="162" viewBox="0 0 163 162" fill="none" xmlns="http://www.w3.org/2000/svg">
<circle cx="81.8013" cy="81" r="81" fill="white"/>
<path d="M81.0413 77.872C81.0413 83.504 79.9533 88.528 77.7773 92.944C75.6653 97.296 72.7213 100.72 68.9453 103.216C65.2333 105.712 61.0093 106.96 56.2733 106.96C51.5373 106.96 47.2813 105.712 43.5053 103.216C39.7933 100.72 36.8493 97.296 34.6733 92.944C32.5613 88.528 31.5053 83.504 31.5053 77.872C31.5053 72.24 32.5613 67.248 34.6733 62.896C36.8493 58.48 39.7933 55.024 43.5053 52.528C47.2813 49.968 51.5373 48.688 56.2733 48.688C61.0093 48.688 65.2333 49.968 68.9453 52.528C72.7213 55.024 75.6653 58.48 77.7773 62.896C79.9533 67.248 81.0413 72.24 81.0413 77.872ZM68.0813 77.872C68.0813 74.416 67.5693 71.408 66.5453 68.848C65.5853 66.224 64.2093 64.176 62.4173 62.704C60.6253 61.232 58.5773 60.496 56.2733 60.496C53.9053 60.496 51.8253 61.232 50.0333 62.704C48.2413 64.176 46.8333 66.224 45.8093 68.848C44.8493 71.408 44.3693 74.416 44.3693 77.872C44.3693 81.328 44.8493 84.336 45.8093 86.896C46.8333 89.456 48.2413 91.472 50.0333 92.944C51.8253 94.416 53.9053 95.152 56.2733 95.152C58.5773 95.152 60.5933 94.416 62.3213 92.944C64.1133 91.472 65.5213 89.456 66.5453 86.896C67.5693 84.272 68.0813 81.264 68.0813 77.872ZM89.418 106C89.418 103.12 89.642 100.528 90.09 98.224C90.538 95.92 91.306 93.776 92.394 91.792C93.546 89.808 95.082 87.952 97.002 86.224C98.986 84.432 101.482 82.704 104.49 81.04C107.114 79.632 109.418 78.416 111.402 77.392C113.386 76.304 115.05 75.312 116.394 74.416C117.802 73.52 118.858 72.624 119.562 71.728C120.266 70.768 120.618 69.68 120.618 68.464C120.618 67.184 120.266 66.032 119.562 65.008C118.858 63.92 117.866 63.056 116.586 62.416C115.306 61.776 113.706 61.456 111.786 61.456C110.25 61.456 108.81 61.648 107.466 62.032C106.186 62.416 104.97 62.96 103.818 63.664C102.73 64.368 101.706 65.168 100.746 66.064C99.786 66.896 98.922 67.792 98.154 68.752L89.994 59.344C90.89 58.448 92.074 57.488 93.546 56.464C95.082 55.376 96.874 54.384 98.922 53.488C101.034 52.528 103.338 51.76 105.834 51.184C108.394 50.544 111.114 50.224 113.994 50.224C118.346 50.224 122.058 50.928 125.13 52.336C128.202 53.68 130.538 55.568 132.138 58C133.802 60.432 134.634 63.28 134.634 66.544C134.634 68.784 134.218 70.768 133.386 72.496C132.554 74.224 131.498 75.76 130.218 77.104C128.938 78.384 127.53 79.536 125.994 80.56C124.522 81.584 123.082 82.48 121.674 83.248C119.69 84.272 117.898 85.232 116.298 86.128C114.698 86.96 113.29 87.824 112.074 88.72C110.858 89.552 109.77 90.416 108.81 91.312C107.914 92.208 107.114 93.232 106.41 94.384H135.69V106H89.418Z" fill="#A6A6AA"/>
</svg>
