<svg width="162" height="162" viewBox="0 0 162 162" fill="none" xmlns="http://www.w3.org/2000/svg">
<circle cx="81" cy="81" r="81" fill="white"/>
<path d="M53.5 50.5L116.5 113.5" stroke="#A6A6AA" stroke-width="3" stroke-linecap="round"/>
<path d="M80.24 77.872C80.24 83.504 79.152 88.528 76.976 92.944C74.864 97.296 71.92 100.72 68.144 103.216C64.432 105.712 60.208 106.96 55.472 106.96C50.736 106.96 46.48 105.712 42.704 103.216C38.992 100.72 36.048 97.296 33.872 92.944C31.76 88.528 30.704 83.504 30.704 77.872C30.704 72.24 31.76 67.248 33.872 62.896C36.048 58.48 38.992 55.024 42.704 52.528C46.48 49.968 50.736 48.688 55.472 48.688C60.208 48.688 64.432 49.968 68.144 52.528C71.92 55.024 74.864 58.48 76.976 62.896C79.152 67.248 80.24 72.24 80.24 77.872ZM67.28 77.872C67.28 74.416 66.768 71.408 65.744 68.848C64.784 66.224 63.408 64.176 61.616 62.704C59.824 61.232 57.776 60.496 55.472 60.496C53.104 60.496 51.024 61.232 49.232 62.704C47.44 64.176 46.032 66.224 45.008 68.848C44.048 71.408 43.568 74.416 43.568 77.872C43.568 81.328 44.048 84.336 45.008 86.896C46.032 89.456 47.44 91.472 49.232 92.944C51.024 94.416 53.104 95.152 55.472 95.152C57.776 95.152 59.792 94.416 61.52 92.944C63.312 91.472 64.72 89.456 65.744 86.896C66.768 84.272 67.28 81.264 67.28 77.872ZM110.121 120.304C105.193 120.304 100.745 119.248 96.7768 117.136C92.8088 115.024 89.8008 112.144 87.7528 108.496L95.1448 100.816C96.9368 103.312 99.1768 105.296 101.865 106.768C104.553 108.24 107.337 108.976 110.217 108.976C112.521 108.976 114.537 108.496 116.265 107.536C118.057 106.576 119.465 105.232 120.489 103.504C121.513 101.776 122.025 99.792 122.025 97.552C122.025 95.312 121.545 93.36 120.585 91.696C119.625 90.032 118.313 88.752 116.649 87.856C114.985 86.896 113.097 86.416 110.985 86.416C108.873 86.416 106.889 86.896 105.033 87.856C103.241 88.752 101.801 90.064 100.713 91.792H89.4808L97.3528 51.184H130.953V62.896H106.665L103.881 78.16C104.713 77.392 105.865 76.752 107.337 76.24C108.809 75.664 110.633 75.376 112.809 75.376C117.097 75.376 120.937 76.304 124.329 78.16C127.721 80.016 130.377 82.608 132.297 85.936C134.217 89.2 135.177 92.976 135.177 97.264C135.177 101.808 134.089 105.808 131.913 109.264C129.737 112.784 126.761 115.504 122.985 117.424C119.209 119.344 114.921 120.304 110.121 120.304Z" fill="#A6A6AA"/>
</svg>
