<svg width="53" height="56" viewBox="0 0 53 56" fill="none" xmlns="http://www.w3.org/2000/svg">
<path d="M9 49.4375V19.6875C9 18.4793 9.48967 17.3856 10.2814 16.5939L18.8438 8.03152L18.6561 7.84383C17.8644 7.05217 16.7707 6.5625 15.5625 6.5625C14.3543 6.5625 13.2606 7.05217 12.4689 7.84394L3.71894 16.5939C2.92717 17.3856 2.4375 18.4793 2.4375 19.6875V49.4375C2.4375 51.8537 4.3963 53.8125 6.8125 53.8125H13.375C10.9588 53.8125 9 51.8537 9 49.4375Z" fill="#CEE1F2"/>
<path d="M15.5625 30.1875C14.3563 30.1875 13.375 29.2062 13.375 28C13.375 26.7938 14.3563 25.8125 15.5625 25.8125H19.9375C21.1457 25.8125 22.125 24.8332 22.125 23.625C22.125 22.4168 21.1457 21.4375 19.9375 21.4375H17.75V19.25C17.75 18.0418 16.7707 17.0625 15.5625 17.0625C14.3543 17.0625 13.375 18.0418 13.375 19.25V21.8138C10.829 22.7168 9 25.1483 9 28C9 31.6186 11.9439 34.5625 15.5625 34.5625C16.7687 34.5625 17.75 35.5438 17.75 36.75C17.75 37.9562 16.7687 38.9375 15.5625 38.9375H11.1875C9.97934 38.9375 9 39.9168 9 41.125C9 42.3332 9.97934 43.3125 11.1875 43.3125H13.375V45.5C13.375 46.7082 14.3543 47.6875 15.5625 47.6875C16.7707 47.6875 17.75 46.7082 17.75 45.5V42.9362C20.296 42.0332 22.125 39.6017 22.125 36.75C22.125 33.1314 19.1811 30.1875 15.5625 30.1875Z" fill="#CC3D00"/>
<path d="M51.7501 35.5278L35.5053 9.56648C34.5755 8.08051 33.1227 7.0455 31.4144 6.65219L19.3555 3.87603C18.6096 3.70431 17.854 3.66406 17.1157 3.75047C16.0606 1.53508 13.8003 0 11.1875 0H2.4375C1.22934 0 0.25 0.979344 0.25 2.1875C0.25 3.39566 1.22934 4.375 2.4375 4.375H11.1875C11.7894 4.375 12.3352 4.61945 12.7311 5.01419C12.0684 5.33159 11.4571 5.7622 10.9222 6.29716L2.17216 15.0472C0.932609 16.2866 0.25 17.9345 0.25 19.6875V49.4375C0.25 53.0561 3.19394 56 6.8125 56H24.3125C27.9311 56 30.875 53.0561 30.875 49.4375V19.6875C30.875 17.9345 30.1924 16.2866 28.9528 15.047L23.1433 9.23748L30.4329 10.9157C31.0023 11.0468 31.4865 11.3917 31.7965 11.8871L48.0413 37.8486C48.2596 38.1975 48.375 38.5972 48.375 39.0048C48.375 39.7658 47.9908 40.4607 47.3473 40.8633L36.2772 47.7902C35.2531 48.431 34.9423 49.7807 35.5832 50.8049C35.9982 51.4683 36.7108 51.8324 37.4397 51.8324C37.8361 51.8324 38.2372 51.7246 38.598 51.499L49.668 44.5721C51.5978 43.3645 52.75 41.2833 52.75 39.0048C52.75 37.7756 52.4042 36.5732 51.7501 35.5278ZM26.5 19.6875V49.4375C26.5 50.6437 25.5187 51.625 24.3125 51.625H6.8125C5.60631 51.625 4.625 50.6437 4.625 49.4375V19.6875C4.625 19.1032 4.85261 18.5538 5.26572 18.1407L14.0157 9.39072C14.4288 8.9775 14.9782 8.75 15.5625 8.75C16.1468 8.75 16.6962 8.9775 17.1093 9.39072L25.8593 18.1407C26.2724 18.5538 26.5 19.1032 26.5 19.6875Z" fill="black"/>
</svg>
