<svg width="10" height="11" viewBox="0 0 10 11" fill="none" xmlns="http://www.w3.org/2000/svg">
<g clip-path="url(#clip0_26268_35260)">
<path d="M5.56013 1.05673C5.45484 0.843419 5.23758 0.708374 4.99969 0.708374C4.76181 0.708374 4.54455 0.843419 4.43925 1.05673L3.29703 3.37075L0.742633 3.74411C0.507283 3.77851 0.311858 3.94352 0.238497 4.16977C0.165136 4.39603 0.226557 4.64431 0.396943 4.81027L2.24478 6.61006L1.80869 9.15272C1.76847 9.38721 1.86487 9.6242 2.05736 9.76403C2.24985 9.90386 2.50503 9.92228 2.7156 9.81155L4.99969 8.61036L7.28379 9.81155C7.49436 9.92228 7.74954 9.90386 7.94203 9.76403C8.13451 9.6242 8.23092 9.38721 8.1907 9.15272L7.7546 6.61006L9.60244 4.81027C9.77283 4.64431 9.83425 4.39603 9.76089 4.16977C9.68753 3.94352 9.4921 3.77851 9.25675 3.74411L6.70236 3.37075L5.56013 1.05673Z" fill="#FFE202"/>
</g>
<defs>
<clipPath id="clip0_26268_35260">
<rect width="10" height="10" fill="white" transform="translate(0 0.5)"/>
</clipPath>
</defs>
</svg>
