<svg width="101" height="97" viewBox="0 0 101 97" fill="none" xmlns="http://www.w3.org/2000/svg">
<g clip-path="url(#clip0_26804_5093)">
<path d="M1.5 65C7.6 65 7.6 74.76 13.7 74.76C19.8 74.76 19.8 65 25.9 65C32 65 32 74.76 38.09 74.76C44.18 74.76 44.19 65 50.29 65C56.39 65 56.39 74.76 62.49 74.76C68.59 74.76 68.59 65 74.69 65C80.79 65 80.79 74.76 86.9 74.76C93.01 74.76 93 65 99.11 65" stroke="#F4CED6" stroke-width="2" stroke-linecap="round" stroke-linejoin="round"/>
<path d="M1.5 85.37C7.6 85.37 7.6 95.13 13.7 95.13C19.8 95.13 19.8 85.37 25.9 85.37C32 85.37 32 95.13 38.09 95.13C44.18 95.13 44.19 85.37 50.29 85.37C56.39 85.37 56.39 95.13 62.49 95.13C68.59 95.13 68.59 85.37 74.69 85.37C80.79 85.37 80.79 95.13 86.9 95.13C93.01 95.13 93 85.37 99.11 85.37" stroke="#F4CED6" stroke-width="2" stroke-linecap="round" stroke-linejoin="round"/>
</g>
<g clip-path="url(#clip1_26804_5093)">
<path d="M51.6802 8.36078C57.49 10.7436 60.2682 17.385 57.8854 23.1948C55.5026 29.0047 48.8612 31.7828 43.0513 29.4C37.2415 27.0173 34.4633 20.3758 36.8461 14.566C39.2289 8.75616 45.8703 5.97799 51.6802 8.36078Z" stroke="#FF5C5C" stroke-width="5"/>
<path d="M62.7315 17.6737C67.2639 19.5326 69.4312 24.7137 67.5723 29.2461C65.7135 33.7785 60.5323 35.9458 56 34.087C51.4676 32.2281 49.3003 27.047 51.1591 22.5146C53.018 17.9822 58.1991 15.8149 62.7315 17.6737Z" stroke="#FF5C5C" stroke-width="10"/>
</g>
<defs>
<clipPath id="clip0_26804_5093">
<rect width="99.6" height="32.13" fill="white" transform="translate(0.5 64)"/>
</clipPath>
<clipPath id="clip1_26804_5093">
<rect width="48.1914" height="43.1914" fill="white" transform="translate(29.27 0.784668)"/>
</clipPath>
</defs>
</svg>
