<svg width="26" height="24" viewBox="0 0 26 24" fill="none" xmlns="http://www.w3.org/2000/svg">
<path d="M19.7656 11.8444C20.16 10.3374 19.6133 8.68664 18.3971 7.71654C17.8449 6.31074 16.6611 5.23498 15.2054 4.82523C14.7804 4.70566 14.3408 4.64502 13.899 4.64502H12.1296C11.1402 4.64502 10.163 4.95486 9.35309 5.52416C8.58199 6.06629 7.99402 6.81049 7.64422 7.68377C6.67801 8.43463 6.10477 9.6028 6.10477 10.8343C6.10477 11.1774 6.14818 11.5156 6.23416 11.8442C4.48827 12.9399 3.02196 14.45 1.97736 16.2324C0.831368 18.1895 0.225586 20.4293 0.225586 22.7095C0.225586 22.9138 0.230676 23.123 0.240606 23.3314C0.25338 23.5992 0.473987 23.8077 0.738605 23.8077C0.746688 23.8077 0.754822 23.8075 0.762906 23.8071C1.0382 23.7939 1.25063 23.5594 1.2374 23.2834C1.22827 23.091 1.22358 22.8979 1.22358 22.7095C1.22358 20.6072 1.78186 18.5427 2.83793 16.7392C3.7734 15.1429 5.07678 13.7845 6.62602 12.7818C6.76205 13.0163 6.91409 13.2391 7.09163 13.444C7.55256 13.9763 8.16657 14.3403 8.83987 14.4947C6.18131 15.7316 4.16332 18.1514 3.42381 21.0047C3.3545 21.2721 3.51452 21.5452 3.78129 21.6147C4.048 21.6842 4.32045 21.5238 4.38976 21.2563C5.069 18.6355 6.94692 16.4208 9.41327 15.3318C10.5296 14.8389 11.7703 14.5785 13.0019 14.5785H13.0103C16.2939 14.5825 19.395 16.474 20.9107 19.3975C21.534 20.5997 21.8787 21.9554 21.9076 23.318C21.9134 23.5906 22.1356 23.8077 22.4063 23.8077C22.4099 23.8077 22.4135 23.8077 22.4171 23.8076C22.6926 23.8018 22.9112 23.5731 22.9053 23.2968C22.8733 21.7816 22.4897 20.2737 21.7962 18.936C20.1114 15.6864 16.6646 13.5835 13.0144 13.578C13.0132 13.578 13.0121 13.5778 13.0109 13.5778H9.57369C8.90988 13.5778 8.27984 13.2899 7.84512 12.7879C7.37332 12.2432 7.10276 11.5575 7.10276 10.8342C7.10276 10.0664 7.38509 9.35429 7.89078 8.80926L8.79221 10.6248C8.87659 10.7947 9.0496 10.9021 9.23892 10.9021H13.3433C14.2548 10.9235 16.6295 11.1213 18.9138 12.4974C18.9146 12.4978 18.9155 12.4981 18.9162 12.4986C18.9174 12.4993 18.9184 12.5001 18.9196 12.5008C22.5319 14.6115 24.776 18.5232 24.776 22.7095C24.776 22.8978 24.7713 23.0908 24.7622 23.2832C24.7564 23.4025 24.7935 23.52 24.8667 23.6143L24.8668 23.6145C25.0361 23.8326 25.3495 23.8719 25.567 23.7022C25.6886 23.6073 25.7545 23.4672 25.7593 23.324C25.769 23.118 25.774 22.9114 25.774 22.7095C25.774 20.4286 25.1681 18.1889 24.0219 16.2325C22.9776 14.4499 21.5113 12.9397 19.7656 11.8444ZM18.8966 10.8769C18.8946 11.0247 18.8825 11.1732 18.8579 11.3189C18.3109 11.0316 17.7654 10.8021 17.2392 10.6188L18.127 8.83057C18.6288 9.38661 18.9066 10.1274 18.8966 10.8769ZM17.1699 8.51303L16.4805 9.90158H13.4993V8.51303H17.1699ZM17.188 7.51227H14.7172L15.3552 5.93471C16.1204 6.2501 16.764 6.80544 17.188 7.51227ZM13.899 5.64563C14.0606 5.64563 14.2223 5.65639 14.3826 5.67675L13.6403 7.51227H12.3302L11.6112 5.681C11.7829 5.65764 11.9564 5.64563 12.1296 5.64563H13.899ZM9.92603 6.34346C10.1514 6.18506 10.3914 6.05253 10.6428 5.94646L11.2577 7.51232H8.83942C9.11382 7.05284 9.48168 6.65585 9.92603 6.34346ZM8.85848 8.51303H12.501L12.5012 9.90158H9.54789L8.85848 8.51303Z" class="transition-all duration-500 group-hover/design:stroke-color1" fill="black"/>
<path d="M13.0005 3.12785C13.2761 3.12785 13.4994 2.90386 13.4994 2.62755V0.534237C13.4994 0.25792 13.2761 0.0339355 13.0005 0.0339355C12.7249 0.0339355 12.5015 0.25792 12.5015 0.534237V2.62755C12.5015 2.90386 12.7249 3.12785 13.0005 3.12785Z"  class="transition-all duration-500 group-hover/design:stroke-color1" fill="black"/>
<path d="M9.30339 3.62935C9.45748 3.85404 9.77309 3.91267 9.99729 3.75813C10.2244 3.60159 10.2819 3.2901 10.1257 3.06241L9.0274 1.4609C8.87121 1.23321 8.56054 1.17557 8.3335 1.33212C8.10641 1.48866 8.04892 1.80015 8.20506 2.02784L9.30339 3.62935Z"  class="transition-all duration-500 group-hover/design:stroke-color1" fill="black"/>
<path d="M15.9331 3.75811C16.1573 3.9126 16.4729 3.85402 16.627 3.62933L17.7254 2.02782C17.8815 1.80013 17.8241 1.48864 17.597 1.3321C17.3699 1.1756 17.0592 1.23319 16.9031 1.46087L15.8047 3.06239C15.6485 3.29003 15.706 3.60151 15.9331 3.75811C16.0195 3.81764 15.706 3.60151 15.9331 3.75811Z"  class="transition-all duration-500 group-hover/design:stroke-color1" fill="black"/>
<path d="M3.61716 23.8076C3.89274 23.8076 4.11615 23.5836 4.11615 23.3073C4.11615 23.031 3.89274 22.807 3.61716 22.807C3.34157 22.807 3.11816 23.031 3.11816 23.3073C3.11816 23.5836 3.34157 23.8076 3.61716 23.8076Z" fill="black"/>
</svg>
