<svg width="200" height="110" viewBox="0 0 200 110" fill="none" xmlns="http://www.w3.org/2000/svg">
<path d="M94.24 54.76C94.24 65.32 92.2 74.74 88.12 83.02C84.04 91.18 78.46 97.6 71.38 102.28C64.3 106.96 56.26 109.3 47.26 109.3C38.38 109.3 30.34 106.96 23.14 102.28C16.06 97.6 10.48 91.18 6.4 83.02C2.32 74.74 0.280001 65.32 0.280001 54.76C0.280001 44.2 2.32 34.84 6.4 26.68C10.48 18.4 16.06 11.92 23.14 7.23999C30.34 2.44 38.38 0.0399995 47.26 0.0399995C56.26 0.0399995 64.3 2.44 71.38 7.23999C78.46 11.92 84.04 18.4 88.12 26.68C92.2 34.84 94.24 44.2 94.24 54.76ZM65.26 54.76C65.26 49.12 64.48 44.2 62.92 40C61.36 35.8 59.2 32.5 56.44 30.1C53.8 27.7 50.74 26.5 47.26 26.5C43.66 26.5 40.48 27.7 37.72 30.1C34.96 32.5 32.8 35.8 31.24 40C29.8 44.2 29.08 49.12 29.08 54.76C29.08 60.4 29.8 65.32 31.24 69.52C32.8 73.72 34.96 77.02 37.72 79.42C40.48 81.7 43.66 82.84 47.26 82.84C50.74 82.84 53.8 81.7 56.44 79.42C59.2 77.02 61.36 73.72 62.92 69.52C64.48 65.32 65.26 60.4 65.26 54.76ZM108.866 107.5C108.866 101.86 109.286 96.82 110.126 92.38C111.086 87.94 112.586 83.92 114.626 80.32C116.786 76.6 119.606 73.18 123.086 70.06C126.686 66.82 131.186 63.76 136.586 60.88C142.226 57.88 146.906 55.36 150.626 53.32C154.466 51.16 157.526 49.36 159.806 47.92C162.086 46.48 163.646 45.1 164.486 43.78C165.446 42.34 165.926 40.78 165.926 39.1C165.926 36.82 165.386 34.84 164.306 33.16C163.226 31.48 161.666 30.22 159.626 29.38C157.586 28.42 155.066 27.94 152.066 27.94C149.666 27.94 147.386 28.24 145.226 28.84C143.066 29.44 140.966 30.34 138.926 31.54C137.006 32.74 135.146 34.18 133.346 35.86C131.546 37.42 129.746 39.22 127.946 41.26L109.766 20.02C111.806 17.98 114.386 15.94 117.506 13.9C120.746 11.86 124.406 10.06 128.486 8.5C132.566 6.82 137.006 5.5 141.806 4.54C146.726 3.45999 151.826 2.91999 157.106 2.91999C165.746 2.91999 173.006 4.24 178.886 6.88C184.886 9.39999 189.446 13 192.566 17.68C195.686 22.36 197.246 27.88 197.246 34.24C197.246 38.32 196.586 41.92 195.266 45.04C194.066 48.04 192.446 50.74 190.406 53.14C188.366 55.54 186.026 57.7 183.386 59.62C180.866 61.54 178.346 63.28 175.826 64.84C172.946 66.28 170.246 67.72 167.726 69.16C165.206 70.48 162.866 71.8 160.706 73.12C158.546 74.32 156.506 75.64 154.586 77.08C152.786 78.4 151.046 79.9 149.366 81.58H199.226V107.5H108.866Z" fill="#CBCBD4" fill-opacity="0.4"/>
</svg>
