<svg width="45" height="44" viewBox="0 0 45 44" fill="none" xmlns="http://www.w3.org/2000/svg">
<circle cx="22.5" cy="22" r="22" fill="#F4CED6"/>
<path d="M23.5 11V33" stroke="#170E0E" stroke-width="2" stroke-linecap="round" stroke-linejoin="round"/>
<path d="M28.5 15H21C20.0717 15 19.1815 15.3687 18.5251 16.0251C17.8687 16.6815 17.5 17.5717 17.5 18.5C17.5 19.4283 17.8687 20.3185 18.5251 20.9749C19.1815 21.6313 20.0717 22 21 22H26C26.9283 22 27.8185 22.3687 28.4749 23.0251C29.1313 23.6815 29.5 24.5717 29.5 25.5C29.5 26.4283 29.1313 27.3185 28.4749 27.9749C27.8185 28.6313 26.9283 29 26 29H17.5" stroke="#170E0E" stroke-width="2" stroke-linecap="round" stroke-linejoin="round"/>
</svg>
