<svg width="26" height="22" viewBox="0 0 26 22" fill="none" xmlns="http://www.w3.org/2000/svg">
<path d="M4.34785 2.42813L6.72158 17.0663C6.07166 17.4511 5.63438 18.1596 5.63438 18.9688C5.63438 20.1871 6.62541 21.1781 7.84375 21.1781C8.77913 21.1781 9.57973 20.5939 9.9016 19.7719H19.4265C19.7484 20.5939 20.549 21.1781 21.4844 21.1781C22.7027 21.1781 23.6938 20.1871 23.6938 18.9688C23.6938 17.7504 22.7027 16.7594 21.4844 16.7594C20.549 16.7594 19.7484 17.3436 19.4265 18.1656H9.9016C9.6344 17.4832 9.03734 16.9655 8.30713 16.8089L8.10349 15.5531H21.4844C23.4781 15.5531 25.1 13.9312 25.1 11.9375V3.73438V3.63438H25H6.1707L5.72823 0.905867L5.71461 0.821875H5.62952H1H0.9V0.921875V2.32812V2.42813H1H4.34785ZM21.4844 18.3656C21.8168 18.3656 22.0875 18.6363 22.0875 18.9688C22.0875 19.3012 21.8168 19.5719 21.4844 19.5719C21.1519 19.5719 20.8813 19.3012 20.8813 18.9688C20.8813 18.6363 21.1519 18.3656 21.4844 18.3656ZM8.44688 18.9688C8.44688 19.3012 8.17622 19.5719 7.84375 19.5719C7.51128 19.5719 7.24062 19.3012 7.24062 18.9688C7.24062 18.6363 7.51128 18.3656 7.84375 18.3656C8.17622 18.3656 8.44688 18.6363 8.44688 18.9688ZM23.4937 11.9375C23.4937 13.0454 22.5923 13.9469 21.4844 13.9469H7.84301L6.43118 5.24062H23.4937V11.9375Z" fill="black" stroke="black" stroke-width="0.2"/>
</svg>
