<svg width="192" height="110" viewBox="0 0 192 110" fill="none" xmlns="http://www.w3.org/2000/svg">
<path d="M94.24 54.76C94.24 65.32 92.2 74.74 88.12 83.02C84.04 91.18 78.46 97.6 71.38 102.28C64.3 106.96 56.26 109.3 47.26 109.3C38.38 109.3 30.34 106.96 23.14 102.28C16.06 97.6 10.48 91.18 6.4 83.02C2.32 74.74 0.280001 65.32 0.280001 54.76C0.280001 44.2 2.32 34.84 6.4 26.68C10.48 18.4 16.06 11.92 23.14 7.23999C30.34 2.44 38.38 0.0399995 47.26 0.0399995C56.26 0.0399995 64.3 2.44 71.38 7.23999C78.46 11.92 84.04 18.4 88.12 26.68C92.2 34.84 94.24 44.2 94.24 54.76ZM65.26 54.76C65.26 49.12 64.48 44.2 62.92 40C61.36 35.8 59.2 32.5 56.44 30.1C53.8 27.7 50.74 26.5 47.26 26.5C43.66 26.5 40.48 27.7 37.72 30.1C34.96 32.5 32.8 35.8 31.24 40C29.8 44.2 29.08 49.12 29.08 54.76C29.08 60.4 29.8 65.32 31.24 69.52C32.8 73.72 34.96 77.02 37.72 79.42C40.48 81.7 43.66 82.84 47.26 82.84C50.74 82.84 53.8 81.7 56.44 79.42C59.2 77.02 61.36 73.72 62.92 69.52C64.48 65.32 65.26 60.4 65.26 54.76ZM191.486 81.58V107.5H113.726V81.58H139.286V35.68C138.206 37.12 136.526 38.56 134.246 40C131.966 41.44 129.386 42.82 126.506 44.14C123.746 45.46 120.926 46.54 118.046 47.38C115.166 48.1 112.526 48.46 110.126 48.46V21.82C112.166 21.82 114.686 21.22 117.686 20.02C120.686 18.7 123.686 17.08 126.686 15.16C129.806 13.24 132.506 11.32 134.786 9.4C137.186 7.47999 138.686 5.91999 139.286 4.71999H168.626V81.58H191.486Z" fill="#CBCBD4" fill-opacity="0.4"/>
</svg>
