<svg width="25" height="25" viewBox="0 0 25 25" fill="none" xmlns="http://www.w3.org/2000/svg">
<path d="M22.5004 17.0524V20.0524C22.5016 20.3309 22.4445 20.6066 22.3329 20.8618C22.2214 21.1169 22.0577 21.346 21.8525 21.5343C21.6473 21.7226 21.405 21.8659 21.1412 21.9551C20.8773 22.0444 20.5978 22.0775 20.3204 22.0524C17.2433 21.7181 14.2874 20.6666 11.6904 18.9824C9.27425 17.4471 7.22576 15.3986 5.69042 12.9824C4.0004 10.3736 2.94866 7.40342 2.62042 4.31242C2.59543 4.03589 2.6283 3.75718 2.71692 3.49405C2.80555 3.23091 2.94799 2.98911 3.13519 2.78404C3.32238 2.57897 3.55023 2.41513 3.80421 2.30294C4.0582 2.19076 4.33276 2.13268 4.61042 2.13242H7.61042C8.09573 2.12764 8.56621 2.2995 8.93418 2.61595C9.30215 2.93241 9.5425 3.37187 9.61042 3.85242C9.73704 4.81249 9.97187 5.75515 10.3104 6.66242C10.445 7.02035 10.4741 7.40934 10.3943 7.7833C10.3146 8.15727 10.1293 8.50053 9.86042 8.77242L8.59042 10.0424C10.014 12.546 12.0869 14.6189 14.5904 16.0424L15.8604 14.7724C16.1323 14.5036 16.4756 14.3183 16.8495 14.2385C17.2235 14.1588 17.6125 14.1879 17.9704 14.3224C18.8777 14.661 19.8204 14.8958 20.7804 15.0224C21.2662 15.091 21.7098 15.3356 22.027 15.7099C22.3441 16.0842 22.5126 16.562 22.5004 17.0524Z" stroke="white" stroke-width="2" stroke-linecap="round" stroke-linejoin="round"/>
</svg>
