<svg width="23" height="23" viewBox="0 0 23 23" fill="none" xmlns="http://www.w3.org/2000/svg">
<path d="M19.4759 13.6799C18.8851 13.0891 18.0998 12.7638 17.2644 12.7638C16.429 12.7638 15.6437 13.0891 15.0529 13.6799L14.6782 14.0545L13.9053 14.8273C13.4605 15.2721 12.7611 15.3037 12.2782 14.9007C10.4565 13.3806 8.76213 11.6861 7.24194 9.86442C6.83911 9.38153 6.8705 8.68194 7.31529 8.23732L8.46286 7.08975C9.68226 5.87035 9.68226 3.88606 8.46286 2.66666L6.75804 0.961838C6.16739 0.371185 5.38186 0.0458984 4.54649 0.0458984C3.71112 0.0458984 2.92576 0.371185 2.33494 0.961838C1.06099 2.23596 0.275634 3.92635 0.123733 5.7218C-0.028001 7.51709 0.462112 9.3154 1.5041 10.7854C4.216 14.6113 7.53114 17.9264 11.3572 20.6385C12.652 21.5563 14.2012 22.0461 15.779 22.0459C15.9925 22.0459 16.2068 22.037 16.4208 22.0189C18.2163 21.867 19.9066 21.0816 21.1806 19.8077C21.7714 19.217 22.0967 18.4315 22.0967 17.5961C22.0967 16.7607 21.7714 15.9754 21.1806 15.3846L19.4759 13.6799ZM11.8542 19.9374C8.10753 17.2816 4.86104 14.0351 2.2052 10.2884C0.28688 7.58205 0.59706 3.91527 2.94272 1.56961C3.37106 1.14127 3.94057 0.905273 4.54649 0.905273C5.15242 0.905273 5.72192 1.14127 6.15027 1.56961L7.85508 3.27443C8.73947 4.15881 8.73947 5.59776 7.85508 6.48198L7.78425 6.55298L4.98373 3.75246C4.81605 3.58478 4.54397 3.58478 4.37613 3.75246C4.20828 3.9203 4.20828 4.19238 4.37613 4.36023L7.17648 7.16058L6.70752 7.62955C5.94617 8.3909 5.89229 9.58848 6.58214 10.4151C8.13522 12.2762 9.86639 14.0074 11.7275 15.5605C12.5541 16.2503 13.7517 16.1963 14.5131 15.4351L14.9819 14.9661L19.8467 19.8308C17.5172 21.5847 14.295 21.6676 11.8542 19.9374ZM20.573 19.1999C20.5488 19.2241 20.5243 19.2477 20.4998 19.2714C20.4918 19.2617 20.4832 19.2521 20.4741 19.2429L15.5896 14.3585L15.6606 14.2875C16.5448 13.4031 17.984 13.4031 18.8682 14.2875L20.573 15.9922C21.4574 16.8766 21.4574 18.3157 20.573 19.1999Z" fill="black"/>
<path d="M3.50439 2.45129C3.39143 2.45129 3.28065 2.49678 3.20076 2.57718C3.1207 2.65707 3.07471 2.76802 3.07471 2.88098C3.07471 2.99394 3.1207 3.10489 3.20076 3.18478C3.28065 3.26468 3.39143 3.31067 3.50439 3.31067C3.61752 3.31067 3.7283 3.26468 3.8082 3.18478C3.88809 3.10489 3.93408 2.99394 3.93408 2.88098C3.93408 2.76802 3.88826 2.65707 3.8082 2.57718C3.7283 2.49678 3.61752 2.45129 3.50439 2.45129Z" fill="black"/>
<path d="M9.47735 15.8547C8.59699 15.0715 7.74282 14.2382 6.93833 13.3783C6.77619 13.2049 6.50428 13.1958 6.33089 13.358C6.15767 13.5201 6.14861 13.792 6.31075 13.9652C7.13303 14.8444 8.00617 15.6961 8.906 16.4969C8.9879 16.5697 9.08996 16.6055 9.1915 16.6055C9.31 16.6055 9.42783 16.5568 9.51276 16.4615C9.67037 16.284 9.65459 16.0125 9.47735 15.8547Z" fill="black"/>
<path d="M5.82284 12.1331C5.66926 11.9523 5.39802 11.9305 5.21725 12.0842C5.03648 12.238 5.01449 12.5092 5.16841 12.69L5.17898 12.7024C5.26408 12.7998 5.38308 12.8496 5.50292 12.8496C5.60313 12.8496 5.70384 12.8147 5.78524 12.7437C5.96417 12.5878 5.98263 12.3164 5.8267 12.1374L5.82284 12.1331Z" fill="black"/>
<path d="M11.125 6.27637C13.7392 6.27637 15.866 8.40315 15.866 11.0174C15.866 11.2547 16.0583 11.4471 16.2957 11.4471H18.0144C18.2516 11.4471 18.4441 11.2547 18.4441 11.0174C18.4441 6.98166 15.1607 3.69824 11.125 3.69824C10.8877 3.69824 10.6953 3.89059 10.6953 4.12793V5.84668C10.6953 6.08401 10.8877 6.27637 11.125 6.27637ZM11.5547 4.57172C14.775 4.78421 17.3582 7.36737 17.5706 10.5877H16.7089C16.4996 7.84137 14.3008 5.64275 11.5547 5.43344V4.57172Z" fill="black"/>
<path d="M11.125 2.62402C15.753 2.62402 19.5183 6.38933 19.5183 11.0174C19.5183 11.2547 19.7107 11.4471 19.948 11.4471H21.6668C21.9041 11.4471 22.0965 11.2547 22.0965 11.0174C22.0965 8.08676 20.9553 5.33156 18.883 3.25932C16.8108 1.18709 14.0556 0.0458984 11.125 0.0458984C10.8877 0.0458984 10.6953 0.238251 10.6953 0.475586V2.19434C10.6953 2.43167 10.8877 2.62402 11.125 2.62402ZM11.5547 0.914169C14.0944 1.01974 16.4671 2.05872 18.2753 3.8671C20.0836 5.67531 21.1226 8.04799 21.2282 10.5877H20.3678C20.1494 5.82654 16.316 1.99309 11.5547 1.77455V0.914169Z" fill="black"/>
<path d="M11.125 10.0863C11.6384 10.0863 12.056 10.5039 12.056 11.0173C12.056 11.2547 12.2484 11.447 12.4857 11.447H14.2045C14.4418 11.447 14.6342 11.2547 14.6342 11.0173C14.6342 9.08241 13.0599 7.50818 11.125 7.50818C10.8877 7.50818 10.6953 7.70053 10.6953 7.93787V9.65662C10.6953 9.89395 10.8877 10.0863 11.125 10.0863ZM11.5547 8.40247C12.6724 8.58542 13.5571 9.46997 13.7399 10.5877H12.8632C12.7044 9.94498 12.1974 9.43791 11.5547 9.27913V8.40247Z" fill="black"/>
</svg>
